<?xml version="1.0" standalone="no"?>
<!DOCTYPE svg PUBLIC "-//W3C//DTD SVG 20010904//EN"
 "http://www.w3.org/TR/2001/REC-SVG-20010904/DTD/svg10.dtd">
<svg version="1.0" xmlns="http://www.w3.org/2000/svg"
 width="694.000000pt" height="694.000000pt" viewBox="0 0 694.000000 694.000000"
 preserveAspectRatio="xMidYMid meet">
<metadata>
Created by potrace 1.11, written by Peter Selinger 2001-2013
</metadata>
<g transform="translate(0.000000,694.000000) scale(0.100000,-0.100000)"
fill="#000000" stroke="none">
<path d="M3550 6229 c-654 -65 -1244 -342 -1700 -799 -810 -812 -1034 -2025
-568 -3079 32 -74 57 -139 54 -146 -2 -6 -44 -39 -93 -72 -48 -34 -98 -71
-110 -82 -12 -12 -26 -21 -30 -21 -4 0 -34 -22 -66 -49 -32 -27 -71 -54 -85
-62 -15 -7 -39 -21 -54 -31 -14 -10 -32 -16 -40 -13 -9 4 -20 -5 -28 -20 -9
-17 -20 -25 -31 -22 -21 6 -74 -25 -88 -50 -5 -11 -34 -32 -63 -48 -29 -16
-97 -57 -150 -92 -54 -35 -104 -66 -111 -69 -8 -3 -19 -15 -25 -28 -8 -17 -21
-25 -53 -29 -24 -3 -45 -11 -47 -16 -2 -6 -13 -11 -25 -11 -12 0 -30 -7 -40
-15 -11 -7 -38 -17 -60 -20 -53 -9 -77 -22 -77 -41 0 -10 6 -14 18 -11 9 3 38
8 64 12 26 3 50 10 53 16 4 5 15 9 26 9 25 0 105 36 138 61 17 14 28 16 42 8
10 -5 19 -14 19 -19 0 -13 -68 -46 -111 -54 -20 -3 -44 -15 -54 -26 -10 -11
-26 -20 -37 -20 -10 0 -18 -4 -18 -9 0 -19 20 -22 42 -7 25 18 68 21 68 6 0
-5 -6 -10 -14 -10 -8 0 -27 -6 -43 -14 -49 -25 -97 -44 -133 -51 -63 -13 -70
-27 -10 -20 30 3 59 10 64 16 6 5 18 9 29 9 23 0 119 40 132 56 14 16 50 23
66 14 22 -14 -8 -38 -75 -59 -45 -14 -62 -24 -64 -38 -2 -13 -27 -32 -76 -56
-40 -21 -78 -37 -84 -37 -13 0 -16 -32 -5 -43 3 -4 11 -3 17 2 6 4 45 16 86
26 41 10 92 26 112 36 21 11 43 19 49 19 7 0 20 6 28 14 19 16 131 59 131 49
0 -11 -35 -32 -53 -33 -10 0 -20 -6 -23 -14 -7 -18 -88 -61 -142 -76 -36 -9
-42 -14 -37 -31 5 -14 0 -21 -22 -30 -59 -22 -153 -72 -153 -81 0 -6 7 -7 17
-4 9 4 46 14 82 23 36 9 82 24 101 35 19 10 42 18 52 18 9 0 23 6 30 14 8 7
43 24 79 37 35 13 70 29 76 35 15 14 134 54 160 54 13 -1 9 -6 -12 -17 -16 -9
-44 -27 -61 -40 -17 -12 -45 -23 -61 -23 -17 0 -33 -6 -36 -14 -3 -8 -22 -20
-41 -27 -20 -7 -36 -19 -36 -26 0 -7 7 -10 15 -7 8 4 15 1 15 -5 0 -16 36 -14
53 3 8 8 43 18 78 21 91 9 156 25 170 41 6 8 19 14 29 14 18 0 56 15 232 94
20 9 40 16 44 16 4 0 18 10 30 21 25 23 51 40 99 63 17 8 39 24 49 35 11 12
24 21 31 21 7 0 33 11 59 25 26 14 54 25 63 25 9 0 26 9 37 19 22 20 62 45
134 82 23 13 42 26 42 30 0 8 84 59 97 59 5 0 67 -58 139 -128 148 -146 253
-233 409 -337 357 -238 739 -383 1180 -447 122 -18 588 -17 715 0 490 69 937
255 1322 549 121 93 343 305 436 418 37 44 69 82 73 85 9 8 163 240 203 307
64 107 161 322 210 462 78 226 120 413 146 656 9 89 13 102 36 121 27 22 25
50 -2 40 -10 -4 -14 3 -14 24 0 21 9 36 30 52 17 12 30 27 30 34 0 7 -13 18
-30 26 -16 7 -30 18 -30 24 0 6 18 27 40 47 24 21 38 41 34 50 -3 10 17 30 60
61 36 26 66 51 66 56 0 14 -18 21 -25 10 -3 -5 -11 -10 -17 -10 -16 0 23 40
55 57 16 8 27 17 24 20 -8 7 -68 -36 -130 -93 -30 -27 -68 -57 -86 -66 -30
-16 -31 -16 -31 2 0 11 12 26 29 35 16 8 39 28 50 44 12 16 51 51 87 78 57 42
64 50 59 74 -5 23 -2 28 31 41 37 15 37 16 16 27 -26 14 -44 3 -151 -90 -36
-32 -71 -59 -77 -59 -6 0 -19 -9 -29 -20 -10 -11 -21 -20 -25 -20 -4 0 -10 30
-14 68 -17 172 -80 414 -163 632 -52 134 -54 145 -38 155 10 5 32 21 49 35 42
34 90 60 112 60 9 0 36 21 60 46 24 25 49 47 56 48 21 3 18 21 -3 19 -32 -4
-22 4 47 38 36 18 69 41 75 51 5 10 16 18 24 18 8 0 15 5 15 10 0 13 -33 13
-46 1 -5 -5 -22 -11 -39 -13 -27 -3 -30 0 -27 22 4 25 47 69 69 70 7 0 17 9
23 20 6 11 17 20 25 20 18 0 20 29 2 36 -7 2 -30 -3 -51 -11 -21 -9 -42 -13
-46 -8 -5 4 -2 37 5 72 l14 65 -45 46 c-38 39 -49 45 -77 42 -32 -4 -33 -3
-29 35 2 21 -1 51 -7 67 l-11 29 -71 -7 c-51 -5 -75 -4 -86 5 -12 11 -17 10
-24 -3 -5 -8 -29 -21 -54 -28 -25 -7 -48 -17 -51 -21 -3 -5 -13 -9 -23 -9 -10
0 -26 -11 -35 -24 -8 -14 -26 -28 -38 -31 -13 -4 -31 -14 -40 -23 -11 -9 -18
-11 -18 -4 0 15 -23 6 -87 -35 -29 -18 -58 -33 -65 -33 -7 0 -47 39 -88 87
-89 102 -256 255 -388 355 -376 284 -824 468 -1292 533 -139 19 -489 27 -620
14z m2978 -868 l3 -63 34 5 c30 5 40 1 76 -34 l42 -40 -11 -50 c-7 -28 -12
-63 -12 -79 0 -27 1 -28 40 -23 22 3 40 3 40 -1 0 -7 -79 -58 -95 -60 -7 -1
-23 -9 -36 -18 -18 -13 -21 -19 -12 -26 9 -6 6 -14 -13 -32 -13 -14 -34 -35
-46 -47 -12 -13 -30 -23 -39 -23 -20 0 -96 -37 -105 -51 -5 -9 -62 -48 -159
-111 -51 -33 -92 -68 -166 -142 -33 -32 -62 -56 -65 -54 -6 7 6 38 16 38 16 0
80 69 69 75 -22 14 -59 -7 -96 -53 -21 -26 -71 -78 -110 -116 -40 -38 -70 -73
-67 -77 7 -12 81 39 117 80 15 17 31 31 37 31 17 0 0 -25 -31 -45 -17 -11 -53
-48 -81 -83 -38 -48 -53 -60 -62 -51 -8 8 -8 13 2 16 21 8 14 36 -8 30 -21 -5
-19 4 7 35 11 12 11 18 2 24 -7 4 -24 -8 -45 -32 -18 -21 -42 -49 -53 -62 -12
-12 -21 -32 -21 -44 0 -20 1 -21 20 -3 11 10 20 14 21 9 0 -5 2 -21 4 -36 4
-28 -9 -39 -18 -15 -6 13 -26 -7 -87 -86 -19 -25 -44 -50 -56 -55 -29 -14
-154 -229 -154 -266 0 -8 -6 -16 -12 -19 -10 -3 -10 -7 -2 -17 13 -13 10 -17
67 89 19 36 33 51 48 51 21 0 21 -1 4 -26 -28 -42 -85 -156 -85 -168 0 -7 -9
-29 -20 -51 -11 -22 -20 -46 -20 -55 0 -9 -11 -26 -25 -38 -15 -13 -25 -33
-25 -48 0 -18 -4 -25 -14 -21 -8 3 -17 -2 -21 -11 -3 -9 -5 -17 -3 -17 2 0 -6
-13 -18 -30 -49 -71 -71 -154 -44 -170 6 -3 10 -33 10 -66 0 -44 3 -59 13 -56
7 2 11 19 10 41 -1 20 2 36 7 36 14 0 12 34 -2 48 -9 9 -7 13 6 18 27 10 30
-2 17 -59 -17 -78 -5 -172 25 -203 14 -13 33 -24 43 -24 26 0 83 21 103 37 23
20 64 13 60 -9 -2 -12 4 -18 17 -18 13 0 23 11 31 35 8 23 18 35 30 35 10 0
28 13 40 30 11 16 52 46 90 66 39 20 89 56 112 80 24 25 63 51 88 61 25 9 61
29 81 44 20 16 55 38 78 50 23 12 47 29 54 38 11 15 123 102 209 164 22 15 45
26 51 25 19 -4 73 29 128 78 30 26 57 43 65 40 8 -3 17 1 21 10 3 9 16 20 29
25 13 4 24 16 24 24 0 10 7 15 19 13 11 -2 31 8 45 21 14 14 26 19 26 13 0 -6
-26 -31 -58 -56 -32 -24 -70 -60 -85 -80 -15 -19 -43 -40 -62 -47 -19 -7 -35
-16 -35 -20 0 -4 -9 -11 -21 -14 -11 -4 -25 -19 -32 -33 -6 -15 -33 -49 -59
-76 -26 -27 -48 -57 -48 -66 0 -21 -59 -69 -110 -90 -42 -17 -100 -64 -100
-79 0 -18 26 -12 45 9 10 11 27 20 38 20 11 0 45 15 76 33 31 18 70 40 86 48
17 7 61 45 98 82 66 66 96 83 63 35 -24 -34 -21 -61 5 -53 15 5 20 3 17 -6 -3
-8 -15 -14 -29 -14 -19 0 -24 -5 -24 -25 -1 -20 -5 -24 -24 -22 -18 2 -22 -2
-17 -15 8 -19 -39 -73 -62 -73 -17 0 -119 -105 -145 -150 -26 -43 -6 -38 71
16 35 26 63 42 61 36 -8 -22 -84 -112 -95 -112 -6 0 -29 -25 -50 -55 -28 -42
-42 -54 -56 -49 -21 6 -21 4 -8 -31 8 -21 6 -31 -8 -50 -19 -27 -37 -33 -28
-10 8 23 -6 18 -52 -17 -26 -20 -38 -36 -32 -42 6 -6 15 -4 25 4 8 7 18 11 20
8 3 -3 -19 -24 -50 -48 -30 -23 -55 -46 -55 -51 0 -5 -6 -9 -13 -9 -8 0 -24
-11 -37 -25 -13 -14 -27 -25 -31 -25 -5 0 -19 -11 -33 -25 -14 -14 -32 -25
-40 -25 -8 0 -32 -11 -52 -25 -20 -14 -49 -25 -65 -25 -15 0 -42 -12 -60 -27
-18 -16 -41 -27 -51 -25 -12 2 -18 -3 -18 -16 0 -14 -22 -30 -83 -61 -90 -44
-112 -49 -121 -26 -8 21 -32 19 -57 -6 -23 -23 -52 -19 -43 6 5 12 -2 15 -31
15 -34 0 -36 -2 -33 -27 l3 -28 -80 3 c-51 2 -86 8 -96 18 -11 10 -18 11 -26
3 -20 -20 -67 1 -123 55 -100 98 -123 130 -160 221 -12 30 -20 73 -25 135 -4
53 -3 55 45 106 48 51 61 74 40 74 -22 0 -10 59 17 79 23 19 25 24 15 46 -6
14 -16 25 -22 25 -20 0 -10 29 20 57 17 15 30 38 30 49 0 15 19 36 60 65 57
42 75 69 47 69 -7 0 -19 -6 -27 -12 -8 -7 -6 -2 5 11 11 13 34 32 50 42 17 11
25 19 20 19 -29 0 -151 -108 -147 -130 2 -12 1 -12 -6 -2 -7 10 -11 10 -22 -3
-7 -8 -17 -15 -23 -15 -6 0 -26 -14 -44 -32 -18 -17 -35 -29 -38 -26 -13 13
22 61 56 78 20 11 50 36 67 57 17 21 56 56 87 78 50 35 55 43 51 68 -5 24 -1
30 29 44 36 17 38 33 3 33 -19 0 -51 -22 -128 -89 -61 -53 -71 -61 -77 -61 -3
0 -15 -7 -25 -17 -10 -9 -18 -12 -18 -7 0 30 57 210 86 271 19 39 34 79 34 89
0 9 34 82 77 163 81 155 84 162 128 258 16 34 31 60 34 58 10 -11 31 19 31 44
0 33 17 57 50 75 15 7 24 20 23 32 -2 21 102 184 118 184 5 0 9 5 9 10 0 6 8
18 18 28 9 10 27 29 39 43 12 13 27 29 32 34 6 6 27 30 46 55 20 25 47 57 60
71 14 14 25 31 25 37 0 6 8 17 18 24 9 7 39 39 65 71 27 32 62 64 78 73 16 8
29 21 29 28 0 8 13 18 28 24 16 5 44 24 62 41 19 17 42 31 51 31 10 0 19 4 21
8 2 4 21 18 42 30 29 17 41 20 47 11 5 -9 14 -8 34 7 15 10 36 24 47 30 10 6
29 20 41 31 54 47 153 78 250 78 l82 0 3 -64z m-1734 -260 c18 -15 18 -55 1
-93 -6 -15 -2 -18 26 -18 25 0 44 -10 72 -36 35 -32 38 -40 33 -73 -3 -20 -9
-56 -12 -80 l-7 -44 42 7 c57 9 51 -8 -14 -44 -28 -14 -61 -32 -74 -39 -16 -9
-20 -16 -13 -23 13 -13 -68 -98 -92 -98 -19 0 -69 -28 -129 -72 -105 -76 -131
-94 -168 -113 -21 -12 -44 -28 -51 -36 -34 -41 -158 -151 -158 -140 0 6 23 33
50 58 28 26 47 50 42 55 -16 16 -60 -11 -108 -68 -27 -31 -76 -83 -109 -115
-33 -32 -57 -61 -53 -64 9 -9 86 46 121 85 15 18 30 30 34 26 4 -3 -18 -30
-48 -59 -30 -28 -69 -70 -87 -91 -25 -31 -35 -37 -44 -28 -9 9 -7 15 8 26 18
14 18 15 -6 24 -22 9 -23 11 -7 17 23 9 22 35 -1 35 -18 0 -62 -49 -62 -69 0
-6 -11 -18 -25 -27 -14 -9 -25 -25 -25 -35 0 -20 15 -26 25 -9 11 18 27 11 22
-10 -3 -11 -1 -23 4 -26 5 -3 6 -10 3 -16 -5 -7 -12 -5 -20 7 -8 10 -15 17
-17 14 -56 -75 -80 -103 -126 -149 -42 -41 -71 -84 -114 -168 -56 -111 -66
-142 -47 -142 6 0 10 4 10 9 0 4 16 36 37 70 25 42 42 61 56 61 14 0 17 -3 9
-12 -17 -22 -92 -170 -92 -182 0 -7 -9 -31 -20 -54 -11 -22 -20 -46 -20 -53 0
-6 -11 -22 -25 -35 -14 -13 -25 -34 -25 -47 0 -16 -5 -24 -16 -23 -19 1 -41
-54 -60 -152 -12 -64 -12 -77 1 -102 8 -16 15 -42 15 -59 0 -16 4 -32 9 -35 4
-3 11 -25 13 -49 3 -27 14 -53 30 -70 25 -26 25 -27 78 -13 30 8 59 20 64 28
16 19 67 11 64 -10 -2 -9 4 -18 14 -20 11 -2 20 8 27 31 7 20 22 39 37 46 32
14 34 14 34 -4 0 -8 5 -15 10 -15 14 0 12 28 -2 33 -21 7 28 53 80 76 26 11
74 45 107 75 33 31 79 62 102 70 23 8 61 28 85 46 24 17 57 41 75 53 48 33
185 138 208 159 34 31 90 65 102 61 16 -6 81 37 135 86 23 23 49 39 57 36 8
-3 20 4 28 15 8 11 19 18 24 14 6 -4 3 -15 -9 -28 -10 -11 -22 -28 -25 -37 -3
-9 -26 -26 -51 -38 -24 -12 -57 -34 -71 -49 -44 -45 -135 -159 -135 -169 0
-15 -83 -83 -102 -83 -9 0 -20 -5 -23 -10 -4 -6 -11 -8 -16 -5 -5 4 -9 2 -9
-3 0 -5 -11 -22 -25 -38 -14 -16 -25 -32 -25 -36 0 -15 19 -8 34 13 8 12 25
23 38 24 38 4 229 115 257 149 56 68 110 104 75 51 -9 -14 -14 -33 -12 -43 3
-12 -2 -24 -14 -31 -12 -8 -17 -18 -13 -31 3 -10 1 -21 -5 -25 -5 -3 -10 -1
-10 4 0 6 -7 11 -15 11 -10 0 -15 -10 -15 -28 0 -36 -27 -75 -48 -67 -24 9
-175 -155 -158 -172 8 -9 62 22 98 55 15 14 30 23 33 20 8 -8 -52 -85 -80
-104 -15 -9 -40 -38 -57 -63 -36 -53 -46 -61 -65 -54 -17 7 -17 -7 2 -33 13
-19 12 -23 -17 -50 -29 -28 -30 -28 -23 -5 6 18 4 22 -6 15 -36 -21 -79 -60
-79 -71 0 -16 12 -17 28 -1 6 6 14 10 16 7 3 -2 -38 -38 -90 -79 -51 -41 -105
-85 -119 -97 -14 -13 -34 -23 -44 -23 -9 0 -32 -11 -51 -25 -19 -14 -46 -25
-60 -25 -26 0 -66 -23 -86 -49 -6 -8 -18 -12 -28 -8 -12 5 -19 -1 -26 -18 -5
-13 -23 -31 -39 -40 -36 -18 -49 -19 -33 -3 22 22 14 39 -15 32 -16 -4 -32
-10 -38 -14 -5 -4 -22 -10 -37 -14 -36 -8 -37 -36 -2 -36 14 0 34 5 46 11 11
6 22 8 25 6 5 -5 -82 -47 -98 -47 -5 0 -9 6 -9 14 0 26 -21 29 -51 7 -34 -26
-57 -27 -55 -4 1 14 -7 18 -29 18 -26 0 -30 -3 -28 -27 l2 -27 -87 3 c-65 3
-89 7 -96 19 -9 14 -11 14 -22 -1 -10 -14 -15 -14 -45 -2 -18 8 -50 31 -70 52
-20 21 -41 38 -47 38 -5 0 -13 11 -16 25 -4 14 -11 25 -16 25 -15 0 -70 91
-70 115 0 12 -4 25 -9 31 -16 17 -30 167 -27 282 2 63 -1 112 -6 112 -12 0 -2
70 23 175 30 127 40 154 55 148 17 -6 28 37 21 84 -8 50 7 114 49 200 19 39
34 79 34 88 0 10 33 81 74 159 40 77 80 155 89 171 8 17 27 58 43 92 15 34 31
60 35 57 12 -7 40 41 34 58 -6 16 32 71 45 63 14 -8 32 23 25 45 -4 11 -2 20
4 20 6 0 31 33 57 73 26 39 60 84 76 100 15 15 28 30 28 32 0 3 16 21 35 41
19 19 35 38 35 43 0 9 40 58 83 101 15 16 27 32 27 37 0 6 10 18 21 29 12 10
41 44 65 75 24 31 57 62 73 69 17 7 33 20 36 30 3 10 16 21 28 24 12 3 37 19
55 36 18 16 37 30 41 30 4 0 33 15 64 34 41 25 57 30 59 20 3 -11 7 -11 28 1
14 8 45 24 68 36 24 11 51 28 61 38 9 9 43 30 76 46 52 26 71 30 141 30 56 0
86 -4 98 -14z m-1514 -121 c-8 -5 -24 -10 -35 -10 -11 0 -40 -11 -64 -25 -23
-14 -49 -25 -57 -25 -8 0 -14 -5 -14 -11 0 -5 -4 -8 -8 -5 -4 3 -25 -10 -45
-29 -43 -39 -52 -85 -16 -85 33 0 13 -16 -37 -30 -47 -14 -67 -36 -43 -50 7
-5 17 -6 21 -4 4 3 8 3 8 0 0 -3 -17 -13 -37 -21 -26 -11 -34 -18 -26 -26 8
-8 26 -8 63 2 40 10 55 10 70 1 11 -7 26 -12 34 -12 10 0 12 -8 7 -32 -6 -27
-14 -35 -50 -49 -24 -9 -56 -30 -70 -46 -14 -17 -39 -34 -56 -38 -16 -3 -50
-22 -76 -41 -26 -19 -50 -34 -54 -34 -3 0 -21 -11 -39 -25 -18 -14 -37 -25
-43 -25 -5 0 -28 -9 -51 -20 -22 -11 -52 -20 -66 -20 -13 0 -38 -12 -55 -26
-17 -14 -31 -22 -31 -17 0 4 -9 -3 -20 -17 -17 -22 -22 -23 -40 -12 -18 11
-20 10 -20 -15 0 -28 -33 -53 -70 -53 -9 0 -25 -9 -35 -20 -10 -11 -24 -20
-31 -20 -7 0 -16 -9 -19 -21 -5 -16 -12 -19 -31 -15 -29 8 -30 -6 -4 -54 l19
-35 1 33 c0 30 1 32 16 18 8 -9 27 -16 40 -16 26 0 71 -25 91 -50 10 -13 12
-13 18 3 9 21 25 23 25 2 0 -19 41 -36 69 -28 14 4 21 1 21 -10 0 -8 9 -17 20
-20 11 -3 20 -13 20 -24 1 -17 1 -17 15 0 13 18 14 18 34 -2 12 -12 28 -21 36
-21 9 0 18 -7 21 -15 4 -8 15 -15 25 -15 10 0 19 -5 19 -10 0 -6 11 -15 25
-20 14 -5 25 -14 25 -20 0 -5 7 -10 16 -10 9 0 22 -6 28 -14 6 -7 43 -41 83
-75 49 -41 75 -72 83 -96 8 -24 17 -35 26 -31 17 7 20 -44 3 -61 -8 -8 -8 -17
0 -31 6 -11 11 -34 11 -51 0 -16 5 -33 11 -36 5 -4 8 -12 6 -18 -2 -7 2 -25
10 -40 8 -15 12 -36 9 -45 -3 -9 -8 -40 -11 -67 -2 -28 -13 -77 -24 -110 -10
-33 -19 -72 -19 -86 0 -14 -10 -61 -22 -103 -22 -72 -25 -77 -47 -71 -15 3
-23 1 -23 -8 0 -7 -7 -23 -16 -36 -13 -18 -18 -20 -26 -10 -6 10 -8 2 -6 -21
2 -24 7 -34 17 -32 12 3 12 0 1 -12 -7 -9 -22 -16 -33 -16 -11 0 -29 -8 -40
-17 -18 -17 -19 -17 -29 0 -9 18 -11 18 -30 0 -11 -10 -30 -18 -41 -18 -12 0
-26 -9 -32 -21 -5 -11 -33 -40 -61 -65 -28 -24 -54 -55 -57 -69 -3 -14 -8 -35
-12 -47 -9 -29 11 -31 39 -4 21 20 21 20 23 -9 2 -27 0 -29 -33 -28 -19 1 -37
5 -40 10 -10 15 -24 8 -24 -13 0 -16 4 -19 20 -14 33 11 13 -18 -27 -38 -41
-20 -54 -16 -30 11 37 40 8 66 -31 29 -15 -14 -40 -31 -57 -37 -24 -9 -26 -13
-15 -21 13 -8 11 -13 -10 -27 -45 -31 -99 -83 -105 -102 -3 -10 -21 -24 -40
-30 -34 -11 -62 -36 -52 -46 3 -3 26 8 51 25 24 17 50 31 57 31 6 0 18 8 25
17 15 22 30 11 18 -14 -4 -10 -8 -31 -8 -47 -1 -18 -9 -34 -23 -43 -22 -15
-23 -14 -23 11 l0 26 -32 -20 c-17 -10 -35 -17 -40 -14 -4 3 -13 -6 -20 -20
-6 -14 -15 -26 -19 -26 -4 0 -46 -32 -93 -70 -47 -39 -90 -70 -96 -70 -5 0
-10 -4 -10 -8 0 -5 -21 -20 -48 -35 -26 -14 -58 -37 -71 -51 -14 -14 -32 -26
-40 -26 -9 0 -39 -19 -66 -41 -28 -23 -62 -46 -77 -51 -16 -6 -28 -14 -28 -19
0 -8 -29 -26 -109 -68 -14 -7 -35 -22 -46 -32 -11 -10 -38 -25 -60 -34 -86
-36 -151 -69 -178 -91 -16 -13 -35 -24 -43 -24 -8 0 -14 -4 -14 -9 0 -5 -10
-13 -22 -16 -13 -4 -34 -17 -48 -30 -14 -12 -77 -43 -140 -69 -130 -53 -138
-56 -200 -85 -56 -25 -205 -41 -178 -18 10 8 18 21 18 28 0 18 68 63 130 85
41 15 79 48 68 60 -7 6 -248 -91 -288 -115 -8 -5 -42 -20 -75 -32 -33 -13 -63
-27 -67 -32 -3 -6 -15 -11 -26 -12 -11 0 -30 -8 -43 -16 -21 -13 -132 -49
-152 -49 -4 0 -7 4 -7 8 0 5 31 21 70 37 56 22 69 32 67 48 -3 25 56 45 79 26
15 -12 44 -6 44 11 0 5 -8 10 -17 10 -12 0 -7 7 15 20 18 11 38 20 44 20 6 0
26 11 44 25 18 14 40 25 49 25 8 0 18 7 21 15 4 8 13 15 21 15 8 0 42 20 76
44 34 24 101 63 149 86 49 23 88 46 88 51 0 5 12 9 26 9 18 0 42 17 82 58 30
31 55 60 54 64 -1 4 7 10 18 13 27 8 50 33 50 52 0 10 -19 -2 -52 -33 -48 -45
-165 -124 -183 -124 -5 0 -23 -11 -41 -25 -18 -14 -37 -25 -41 -25 -5 0 -22
-13 -37 -29 -17 -17 -35 -27 -45 -24 -10 2 -35 -7 -55 -21 -21 -14 -63 -35
-94 -46 -31 -12 -62 -26 -69 -32 -7 -5 -21 -7 -31 -4 -11 4 -24 0 -32 -9 -7
-8 -25 -15 -41 -15 -19 0 -29 -5 -29 -15 0 -11 -11 -15 -40 -15 -46 0 -54 17
-12 25 44 10 112 44 112 57 0 16 -30 48 -47 48 -26 0 -12 18 47 59 33 22 62
41 65 41 2 0 39 22 82 49 43 26 87 51 99 55 12 3 26 17 32 31 12 27 67 59 83
49 6 -3 20 3 32 14 12 10 47 32 77 48 63 33 112 67 154 106 17 16 35 28 41 28
6 0 38 23 70 51 33 28 73 58 90 66 16 9 60 40 98 70 37 30 83 61 101 68 18 8
47 25 62 38 16 13 45 33 66 45 20 12 39 29 42 38 3 8 10 13 16 9 5 -3 40 19
77 49 37 31 73 56 79 56 5 0 23 13 39 30 16 17 34 30 39 30 6 0 38 25 71 56
84 79 224 209 264 247 18 18 42 51 52 75 10 23 25 42 32 42 8 0 31 34 50 75
20 41 41 75 47 75 16 0 42 68 34 92 -5 17 -3 18 14 9 28 -15 38 4 18 32 -9 12
-26 37 -37 55 -28 44 -46 41 -40 -5 3 -23 -30 -14 -135 37 -57 28 -109 50
-117 50 -16 0 -57 28 -57 40 0 5 15 6 33 3 28 -4 35 -1 45 21 8 17 8 26 1 26
-6 0 -8 9 -4 20 4 14 1 22 -12 27 -10 3 -26 13 -35 21 -17 14 -18 13 -18 -18
l0 -33 -23 25 c-13 14 -45 33 -73 42 -27 10 -57 22 -66 27 -13 7 -18 5 -18 -6
0 -21 -102 -21 -120 0 -22 27 0 37 34 15 36 -22 61 -26 71 -10 7 11 -14 55
-22 46 -3 -3 -18 3 -33 14 -16 11 -37 20 -49 20 -23 0 -44 -31 -35 -54 3 -9 1
-16 -5 -16 -6 0 -11 10 -11 23 -1 12 -7 33 -15 47 -17 30 -19 76 -4 86 8 5 10
0 6 -17 -5 -20 0 -27 28 -40 30 -14 33 -14 28 0 -14 46 -50 105 -66 109 -12 3
-16 10 -12 22 3 10 1 21 -5 25 -7 4 -9 19 -5 36 7 30 0 35 -24 20 -9 -6 -10
-11 -2 -15 6 -4 11 -23 11 -42 0 -20 5 -44 10 -55 14 -24 2 -121 -14 -116 -6
2 -12 18 -14 35 -2 18 -7 32 -12 32 -6 0 -8 39 -6 90 2 50 0 90 -5 90 -21 0 3
106 29 132 7 7 12 16 12 21 0 4 14 28 30 52 17 24 30 50 30 59 0 8 11 23 24
33 13 10 31 33 40 51 23 44 194 213 261 257 30 20 55 40 55 45 0 4 15 14 32
21 18 7 61 35 96 61 35 26 67 48 71 48 5 0 19 9 33 19 13 11 44 24 68 31 25 6
65 22 90 34 25 13 66 31 92 40 76 25 351 97 355 92 2 -2 32 5 66 16 53 17 150
31 247 36 20 1 22 0 10 -8z m3350 -1359 c0 -5 -7 -12 -16 -15 -14 -5 -15 -4
-4 9 14 17 20 19 20 6z m-1610 -49 c0 -5 -21 -23 -46 -42 -45 -32 -46 -32 -42
-9 2 18 8 23 24 21 11 -1 29 7 39 18 20 22 25 24 25 12z m-3084 -17 c4 -9 19
-15 40 -15 27 0 35 -5 40 -24 3 -14 3 -30 -1 -36 -8 -12 -46 -3 -57 14 -4 6
-12 12 -18 12 -42 5 -54 18 -41 43 14 25 29 27 37 6z m3386 -187 c-8 -40 -9
-42 -20 -21 -9 16 -9 29 -1 49 5 16 8 40 5 54 -4 20 -3 19 9 -7 10 -22 12 -44
7 -75z m-61 -41 c-8 -8 -11 -2 -11 19 0 40 14 54 18 19 2 -15 -1 -32 -7 -38z
m-381 -27 c0 -5 -5 -10 -11 -10 -5 0 -7 5 -4 10 3 6 8 10 11 10 2 0 4 -4 4
-10z m-1301 -212 c-1 -13 -5 -36 -9 -53 l-7 -30 -7 28 c-9 31 0 77 14 77 6 0
9 -10 9 -22z m1221 -62 c0 -3 -4 -8 -10 -11 -5 -3 -10 -1 -10 4 0 6 5 11 10
11 6 0 10 -2 10 -4z m-1240 -41 c0 -8 -2 -15 -4 -15 -2 0 -6 7 -10 15 -3 8 -1
15 4 15 6 0 10 -7 10 -15z m-857 -385 c-11 -9 -29 -23 -42 -29 -21 -12 -22
-11 -10 11 6 13 23 33 38 45 21 17 27 19 29 6 2 -8 -5 -23 -15 -33z m-256
-248 c-10 -10 -17 -28 -17 -39 0 -16 -8 -22 -32 -26 -18 -2 -35 -3 -38 0 -6 6
78 83 92 83 6 0 4 -7 -5 -18z m-2156 -872 c-24 -11 -51 -20 -60 -20 -25 1 50
38 79 39 20 0 16 -4 -19 -19z m-116 -40 c-3 -5 -12 -10 -18 -10 -7 0 -6 4 3
10 19 12 23 12 15 0z m315 -19 c0 -5 -14 -14 -31 -20 -38 -13 -39 -13 -39 -3
0 5 12 13 28 19 35 14 42 15 42 4z m125 -91 c-18 -19 -65 -28 -65 -12 0 9 46
29 69 31 11 1 10 -4 -4 -19z m-50 -52 c-19 -11 -30 -5 -21 11 4 6 14 7 22 4
15 -5 14 -7 -1 -15z m-56 -63 c-8 -7 -13 -6 -16 3 -3 6 -12 12 -21 12 -14 0
-14 2 -3 9 19 12 55 -9 40 -24z m-122 -51 c-3 -3 -12 -4 -19 -1 -8 3 -5 6 6 6
11 1 17 -2 13 -5z m177 -44 c-5 -5 -25 -12 -44 -16 -35 -6 -35 -6 -10 9 29 17
70 23 54 7z"/>
<path d="M6588 5066 c-18 -13 -25 -46 -10 -46 5 0 17 9 27 20 22 25 9 45 -17
26z"/>
<path d="M6482 5024 c-12 -15 -21 -28 -19 -30 9 -10 82 25 85 39 5 27 -40 20
-66 -9z"/>
<path d="M6352 4958 c7 -19 35 -21 41 -3 5 11 0 15 -19 15 -16 0 -24 -5 -22
-12z"/>
<path d="M6100 4650 c0 -5 7 -10 16 -10 8 0 12 5 9 10 -3 6 -10 10 -16 10 -5
0 -9 -4 -9 -10z"/>
<path d="M5315 3720 c-8 -13 4 -32 16 -25 15 10 11 -5 -10 -33 -13 -20 -16
-33 -10 -49 5 -13 12 -23 17 -23 8 0 34 53 47 97 9 31 -2 48 -21 32 -10 -8
-14 -8 -14 0 0 14 -17 15 -25 1z"/>
<path d="M6440 3380 c0 -5 5 -10 10 -10 6 0 10 5 10 10 0 6 -4 10 -10 10 -5 0
-10 -4 -10 -10z"/>
<path d="M6075 3267 c-11 -7 -22 -14 -25 -17 -3 -3 -20 -16 -38 -29 -18 -12
-30 -27 -27 -32 9 -14 51 -11 64 5 7 8 23 17 36 20 24 6 41 38 30 56 -8 12
-15 12 -40 -3z"/>
<path d="M6247 3224 c-4 -4 -4 -10 -1 -15 6 -10 34 0 34 12 0 10 -24 12 -33 3z"/>
<path d="M6210 3184 c0 -17 22 -14 28 4 2 7 -3 12 -12 12 -9 0 -16 -7 -16 -16z"/>
<path d="M5938 3174 c-15 -8 -29 -23 -33 -34 -3 -11 -13 -20 -21 -20 -17 0
-19 -16 -3 -26 7 -4 16 1 21 10 5 9 15 16 21 16 12 0 34 21 50 47 12 19 -6 22
-35 7z"/>
<path d="M6154 3135 c-14 -14 -31 -25 -39 -25 -13 0 -35 -29 -35 -44 0 -13 26
-4 81 30 32 20 59 43 59 50 0 23 -39 16 -66 -11z"/>
<path d="M5650 3110 c0 -5 5 -10 10 -10 6 0 10 5 10 10 0 6 -4 10 -10 10 -5 0
-10 -4 -10 -10z"/>
<path d="M5060 3085 c0 -16 6 -25 15 -25 8 0 15 9 15 19 0 10 -7 21 -15 25
-11 4 -15 -1 -15 -19z"/>
<path d="M5801 3074 c-20 -20 -21 -24 -7 -24 9 0 31 7 49 17 29 15 30 17 12
24 -27 10 -27 10 -54 -17z"/>
<path d="M6035 3050 c3 -5 10 -10 16 -10 5 0 9 5 9 10 0 6 -7 10 -16 10 -8 0
-12 -4 -9 -10z"/>
<path d="M5450 3020 c0 -5 5 -10 10 -10 6 0 10 5 10 10 0 6 -4 10 -10 10 -5 0
-10 -4 -10 -10z"/>
<path d="M5977 3023 c-9 -9 12 -33 29 -33 17 0 18 12 2 28 -14 14 -22 15 -31
5z"/>
<path d="M5682 2981 c4 -13 18 -16 19 -4 0 4 -5 9 -11 12 -7 2 -11 -2 -8 -8z"/>
<path d="M5113 2965 c-6 -18 23 -55 44 -55 8 0 13 3 11 8 -33 67 -43 76 -55
47z"/>
<path d="M5630 2965 c12 -15 30 -12 30 6 0 5 -10 9 -21 9 -18 0 -19 -2 -9 -15z"/>
<path d="M5450 2580 c0 -5 5 -10 10 -10 6 0 10 5 10 10 0 6 -4 10 -10 10 -5 0
-10 -4 -10 -10z"/>
<path d="M5499 2543 c-6 -7 -19 -13 -28 -13 -9 0 -22 -4 -30 -9 -22 -14 26
-36 53 -23 64 29 76 37 76 48 0 17 -57 15 -71 -3z"/>
<path d="M5040 2537 c0 -8 11 -19 25 -25 25 -12 25 -12 9 13 -18 27 -34 33
-34 12z"/>
<path d="M5090 2480 c0 -5 9 -10 20 -10 11 0 20 5 20 10 0 6 -9 10 -20 10 -11
0 -20 -4 -20 -10z"/>
<path d="M4838 4746 c-18 -13 -25 -36 -10 -36 13 1 42 27 42 39 0 14 -11 14
-32 -3z"/>
<path d="M4763 4730 c-13 -5 -23 -14 -23 -20 0 -5 -7 -10 -15 -10 -8 0 -15 -5
-15 -10 0 -7 14 -8 38 -4 48 9 52 11 52 35 0 21 -4 22 -37 9z"/>
<path d="M4612 4653 c-10 -4 -10 -8 -1 -19 9 -11 15 -11 25 -3 27 22 11 36
-24 22z"/>
<path d="M4356 4341 c-4 -5 -2 -12 3 -15 5 -4 12 -2 15 3 4 5 2 12 -3 15 -5 4
-12 2 -15 -3z"/>
<path d="M3566 3404 c-9 -22 -8 -24 9 -24 8 0 15 -4 15 -9 0 -5 -7 -14 -15
-21 -16 -14 -20 -47 -6 -68 6 -11 10 -11 18 0 22 27 43 78 43 102 0 27 -16 44
-23 24 -3 -10 -7 -10 -19 0 -13 10 -17 10 -22 -4z"/>
<path d="M3077 3093 c-11 -10 -8 -51 3 -58 6 -4 10 8 10 29 0 37 -2 41 -13 29z"/>
<path d="M4690 3071 c0 -6 5 -13 10 -16 6 -3 10 1 10 9 0 9 -4 16 -10 16 -5 0
-10 -4 -10 -9z"/>
<path d="M4335 2957 c-39 -23 -95 -69 -95 -78 0 -18 51 -9 89 16 48 30 54 38
38 58 -10 12 -16 13 -32 4z"/>
<path d="M4500 2906 c0 -9 7 -16 16 -16 9 0 14 5 12 12 -6 18 -28 21 -28 4z"/>
<path d="M4467 2883 c-12 -11 -8 -23 8 -23 8 0 15 7 15 15 0 16 -12 20 -23 8z"/>
<path d="M4189 2859 c-15 -6 -29 -19 -32 -29 -3 -11 -12 -20 -21 -20 -19 0
-21 -16 -4 -26 6 -4 14 -2 16 4 2 7 10 12 17 12 15 0 65 49 65 62 0 10 -8 9
-41 -3z"/>
<path d="M4435 2843 c-11 -3 -27 -13 -35 -22 -8 -9 -24 -21 -35 -27 -22 -12
-33 -44 -15 -44 21 0 120 70 120 85 0 16 -2 16 -35 8z"/>
<path d="M3312 2769 c1 -12 9 -24 16 -27 9 -3 13 3 10 19 -1 12 -9 24 -16 27
-9 3 -13 -3 -10 -19z"/>
<path d="M4063 2764 c-9 -20 -9 -24 5 -24 21 1 56 26 45 32 -28 16 -40 14 -50
-8z"/>
<path d="M4290 2735 c0 -8 5 -15 10 -15 6 0 10 7 10 15 0 8 -4 15 -10 15 -5 0
-10 -7 -10 -15z"/>
<path d="M3700 2710 c0 -5 7 -10 16 -10 8 0 12 5 9 10 -3 6 -10 10 -16 10 -5
0 -9 -4 -9 -10z"/>
<path d="M4230 2696 c0 -10 9 -16 21 -16 24 0 21 23 -4 28 -10 2 -17 -3 -17
-12z"/>
<path d="M3370 2655 c-11 -13 -10 -19 5 -35 16 -18 45 -28 45 -15 0 2 -8 18
-19 35 -16 27 -20 29 -31 15z"/>
<path d="M3935 2660 c3 -5 10 -10 16 -10 5 0 9 5 9 10 0 6 -7 10 -16 10 -8 0
-12 -4 -9 -10z"/>
<path d="M3875 2650 c3 -5 13 -10 21 -10 8 0 14 5 14 10 0 6 -9 10 -21 10 -11
0 -17 -4 -14 -10z"/>
<path d="M3700 2270 c0 -5 7 -10 16 -10 8 0 12 5 9 10 -3 6 -10 10 -16 10 -5
0 -9 -4 -9 -10z"/>
<path d="M3290 2220 c0 -9 32 -30 46 -30 4 0 -1 9 -11 20 -19 21 -35 26 -35
10z"/>
<path d="M3350 2164 c0 -9 5 -14 12 -12 18 6 21 28 4 28 -9 0 -16 -7 -16 -16z"/>
<path d="M2851 4662 c-55 -21 -68 -45 -19 -36 38 7 78 30 78 44 0 13 -7 12
-59 -8z"/>
<path d="M2974 4638 c-3 -4 11 -8 30 -8 20 0 36 2 36 4 0 8 -61 12 -66 4z"/>
<path d="M2757 4592 c-13 -14 -15 -22 -7 -27 16 -10 33 9 28 30 -3 16 -5 15
-21 -3z"/>
<path d="M2656 4572 c-62 -21 -77 -48 -21 -38 49 9 83 25 89 42 7 18 -8 17
-68 -4z"/>
<path d="M1792 3728 c3 -21 33 -47 42 -37 11 11 -7 47 -26 52 -15 4 -19 1 -16
-15z"/>
<path d="M1920 3650 c20 -13 50 -13 50 0 0 6 -15 10 -32 10 -25 0 -29 -3 -18
-10z"/>
<path d="M2312 3434 c2 -9 12 -22 23 -28 11 -5 33 -19 49 -30 26 -17 29 -17
23 -2 -4 10 -7 23 -7 30 0 12 -60 46 -81 46 -6 0 -9 -7 -7 -16z"/>
<path d="M2960 3150 c-9 -6 -14 -21 -12 -41 3 -24 0 -31 -10 -26 -10 3 -27
-22 -58 -87 -24 -50 -43 -94 -42 -98 1 -4 -9 -19 -23 -32 -14 -14 -25 -32 -25
-41 0 -18 -1 -18 38 -4 22 8 38 25 57 62 15 29 41 66 57 84 26 26 30 37 24 63
-3 17 -1 40 5 51 5 11 9 33 7 49 -2 23 -6 28 -18 20z"/>
<path d="M1861 2313 c-1 -7 -8 -10 -16 -7 -11 5 -15 -1 -15 -25 0 -34 6 -37
34 -16 16 12 17 19 8 37 -6 13 -11 18 -11 11z"/>
<path d="M1735 2212 c-11 -2 -25 -9 -32 -14 -7 -5 -16 -7 -20 -5 -5 3 -7 -10
-5 -29 5 -39 36 -64 55 -45 9 9 8 14 -2 20 -11 7 -9 15 10 40 25 34 24 39 -6
33z"/>
<path d="M1503 2053 c-13 -8 -23 -22 -23 -30 0 -21 36 1 43 27 3 11 4 20 4 19
-1 0 -12 -7 -24 -16z"/>
<path d="M1985 2054 c-40 -21 -65 -44 -65 -61 0 -8 22 3 55 28 30 23 55 43 55
45 0 8 -16 4 -45 -12z"/>
<path d="M1364 1955 c-11 -23 -11 -24 12 -8 26 17 32 33 12 33 -7 0 -18 -11
-24 -25z"/>
<path d="M540 1601 c0 -6 5 -13 10 -16 6 -3 10 1 10 9 0 9 -4 16 -10 16 -5 0
-10 -4 -10 -9z"/>
<path d="M456 1559 l-38 -21 21 -19 c22 -21 41 -25 41 -9 0 6 -6 10 -12 10 -7
0 2 9 20 20 32 20 43 40 20 40 -7 -1 -30 -10 -52 -21z"/>
<path d="M578 1553 c-16 -8 -28 -18 -28 -24 0 -17 26 -9 50 16 26 28 19 30
-22 8z"/>
<path d="M934 1546 c-15 -12 -17 -17 -6 -27 10 -11 15 -10 29 4 24 23 4 43
-23 23z"/>
<path d="M882 1509 c2 -6 8 -10 13 -10 5 0 11 4 13 10 2 6 -4 11 -13 11 -9 0
-15 -5 -13 -11z"/>
</g>
</svg>
