<?xml version="1.0" encoding="utf-8"?>
<!-- Generator: Adobe Illustrator 16.0.0, SVG Export Plug-In . SVG Version: 6.00 Build 0)  -->
<!DOCTYPE svg PUBLIC "-//W3C//DTD SVG 1.1//EN" "http://www.w3.org/Graphics/SVG/1.1/DTD/svg11.dtd">
<svg version="1.1" id="Layer_1" xmlns="http://www.w3.org/2000/svg" xmlns:xlink="http://www.w3.org/1999/xlink" x="0px" y="0px"
	 width="504px" height="504px" viewBox="0 0 504 504" enable-background="new 0 0 504 504" xml:space="preserve">
<path fill="#FFFFFF" d="M251.921,45.55c67.265,0,75.233,0.257,101.797,1.469c24.562,1.12,37.901,5.224,46.778,8.674
	c11.759,4.57,20.151,10.029,28.966,18.845c8.816,8.815,14.275,17.207,18.845,28.966c3.45,8.877,7.555,22.216,8.675,46.778
	c1.212,26.564,1.469,34.532,1.469,101.798c0,67.265-0.257,75.233-1.469,101.797c-1.12,24.562-5.225,37.901-8.675,46.778
	c-4.569,11.759-10.028,20.15-18.845,28.966c-8.814,8.815-17.207,14.275-28.966,18.845c-8.877,3.45-22.216,7.554-46.778,8.674
	c-26.56,1.212-34.526,1.47-101.797,1.47c-67.271,0-75.237-0.258-101.798-1.47c-24.562-1.12-37.901-5.224-46.778-8.674
	c-11.759-4.569-20.151-10.029-28.966-18.845s-14.275-17.207-18.845-28.966c-3.45-8.877-7.554-22.216-8.674-46.778
	c-1.212-26.563-1.469-34.532-1.469-101.797c0-67.266,0.257-75.234,1.469-101.798c1.12-24.562,5.224-37.901,8.674-46.778
	c4.57-11.759,10.029-20.151,18.845-28.966c8.815-8.816,17.207-14.275,28.966-18.845c8.877-3.45,22.216-7.554,46.778-8.674
	C176.687,45.807,184.655,45.55,251.921,45.55 M251.921,0.159c-68.418,0-76.997,0.29-103.867,1.516
	c-26.814,1.223-45.127,5.482-61.151,11.71c-16.566,6.437-30.615,15.051-44.621,29.056C28.277,56.447,19.663,70.496,13.226,87.062
	c-6.228,16.024-10.487,34.337-11.71,61.151C0.29,175.083,0,183.662,0,252.08c0,68.417,0.29,76.996,1.516,103.866
	c1.223,26.813,5.482,45.127,11.71,61.15c6.437,16.566,15.051,30.615,29.056,44.621c14.006,14.005,28.055,22.619,44.621,29.058
	c16.024,6.227,34.337,10.485,61.151,11.709c26.87,1.226,35.449,1.516,103.867,1.516c68.417,0,76.996-0.29,103.866-1.516
	c26.813-1.224,45.127-5.482,61.15-11.709c16.566-6.438,30.615-15.053,44.621-29.058c14.006-14.006,22.619-28.055,29.058-44.621
	c6.227-16.023,10.485-34.337,11.709-61.15c1.226-26.87,1.516-35.449,1.516-103.866c0-68.418-0.29-76.997-1.516-103.867
	c-1.224-26.814-5.482-45.127-11.709-61.151c-6.438-16.566-15.052-30.615-29.058-44.621c-14.006-14.005-28.055-22.619-44.621-29.056
	c-16.023-6.228-34.337-10.487-61.15-11.71C328.917,0.449,320.338,0.159,251.921,0.159z"/>
<path fill="#FFFFFF" d="M251.921,122.715c-71.447,0-129.365,57.918-129.365,129.365c0,71.446,57.918,129.364,129.365,129.364
	c71.446,0,129.364-57.918,129.364-129.364C381.285,180.633,323.367,122.715,251.921,122.715 M251.921,336.053
	c-46.378,0-83.974-37.596-83.974-83.973c0-46.378,37.596-83.974,83.974-83.974c46.377,0,83.973,37.596,83.973,83.974
	C335.894,298.457,298.298,336.053,251.921,336.053z"/>
<path fill="#FFFFFF" d="M416.627,117.604c0,16.696-13.535,30.23-30.23,30.23s-30.23-13.534-30.23-30.23s13.535-30.231,30.23-30.231
	S416.627,100.908,416.627,117.604"/>
</svg>
