<?xml version="1.0" encoding="utf-8"?>
<!-- Generator: Adobe Illustrator 16.0.0, SVG Export Plug-In . SVG Version: 6.00 Build 0)  -->
<!DOCTYPE svg PUBLIC "-//W3C//DTD SVG 1.1//EN" "http://www.w3.org/Graphics/SVG/1.1/DTD/svg11.dtd">
<svg version="1.1" id="Layer_1" xmlns="http://www.w3.org/2000/svg" xmlns:xlink="http://www.w3.org/1999/xlink" x="0px" y="0px"
	 width="171.47px" height="171.47px" viewBox="0 0 171.47 171.47" enable-background="new 0 0 171.47 171.47" xml:space="preserve">
<g>
	<path fill="#FFFFFF" fill-opacity="10%" d="M50.021,51.072c-0.461,1.173-1.093,2.78-0.878,5.04c0.285,3.003,1.975,4.921,3.332,6.462
		c1.423,1.614,2.158,2.531,1.999,4.104c-0.125,1.237,0.776,2.341,2.014,2.466c0.188,0.02,0.374,0.014,0.554-0.012
		c0.997-0.146,1.806-0.953,1.912-2.001c0.363-3.601-1.557-5.78-3.1-7.532c-1.164-1.32-2.082-2.363-2.229-3.912
		c-0.113-1.189,0.21-2.014,0.585-2.967c1.038-2.639,1.536-5.127-2.886-8.865c-0.948-0.803-2.369-0.684-3.172,0.265
		c-0.802,0.949-0.684,2.369,0.266,3.172C50.737,49.252,50.6,49.602,50.021,51.072z"/>
	<path fill="#FFFFFF" fill-opacity="10%" d="M55.295,35.075c-0.041,2.209-0.092,4.96,1.883,7.434c1.854,2.322,4.229,3.105,6.135,3.734
		c2.61,0.859,3.312,1.092,3.117,4.006c-0.081,1.213,0.814,2.266,2.015,2.389c0.027,0.004,0.055,0.006,0.081,0.008
		c1.24,0.082,2.313-0.855,2.396-2.096c0.428-6.398-3.402-7.66-6.198-8.582c-1.615-0.533-3.01-0.992-4.027-2.268
		c-0.916-1.146-0.938-2.473-0.901-4.543c0.038-2.068,0.082-4.414-1.385-6.631c-0.687-1.036-2.083-1.321-3.12-0.635
		c-1.036,0.686-1.32,2.082-0.634,3.119C55.35,32.06,55.324,33.457,55.295,35.075z"/>
	<path fill="#FFFFFF" fill-opacity="10%" d="M98.225,53.157c-1.806,0.064-2.583-1.027-4.193-3.936c-1.902-3.434-4.505-8.139-11.812-7.726
		c-1.242,0.07-2.19,1.134-2.121,2.374c0.069,1.241,1.128,2.19,2.374,2.121c4.265-0.238,5.676,1.899,7.62,5.411
		c1.549,2.796,3.466,6.26,7.969,6.259c0.106,0,0.216-0.002,0.325-0.006c1.242-0.045,2.213-1.088,2.169-2.33
		C100.511,54.083,99.466,53.11,98.225,53.157z"/>
	<path fill="#FFFFFF" fill-opacity="10%" d="M117.321,117.271c-1.806,0.065-2.583-1.027-4.193-3.936c-1.901-3.434-4.503-8.135-11.812-7.725
		c-1.24,0.069-2.19,1.133-2.12,2.373c0.069,1.241,1.13,2.189,2.373,2.121c4.265-0.238,5.676,1.899,7.621,5.412
		c1.548,2.796,3.465,6.259,7.968,6.259c0.106,0,0.216-0.003,0.326-0.006c1.242-0.045,2.213-1.089,2.168-2.33
		C119.607,118.196,118.571,117.227,117.321,117.271z"/>
	<path fill="#FFFFFF" fill-opacity="10%" d="M19.947,37.2c-1.24,0.069-2.19,1.133-2.12,2.373c0.069,1.241,1.13,2.19,2.374,2.121
		c4.264-0.24,5.675,1.898,7.62,5.411c1.548,2.796,3.465,6.259,7.968,6.259c0.107,0,0.216-0.002,0.326-0.006
		c1.241-0.045,2.213-1.088,2.168-2.33s-1.088-2.208-2.331-2.168c-1.804,0.063-2.583-1.027-4.193-3.936
		C29.857,41.491,27.254,36.786,19.947,37.2z"/>
	<path fill="#FFFFFF" fill-opacity="10%" d="M81.462,76.376c0.227,0.072,0.455,0.105,0.68,0.105c0.955,0,1.842-0.613,2.146-1.572
		c0.375-1.185-0.281-2.449-1.467-2.824c-4.461-1.412-4.479-2.857-4.516-5.735c-0.032-2.388-0.073-5.655-3.249-8.522
		c-0.923-0.832-2.346-0.76-3.179,0.163s-0.76,2.347,0.162,3.179c1.717,1.549,1.736,3.096,1.764,5.238
		C73.844,69.604,73.899,73.983,81.462,76.376z"/>
	<path fill="#FFFFFF" fill-opacity="10%" d="M108.431,152.097c-1.718-0.382-3.073-0.684-4.105-1.85c-0.791-0.894-1.015-1.75-1.272-2.742
		c-0.716-2.742-1.777-5.047-7.554-5.467c-1.239-0.09-2.316,0.842-2.408,2.082c-0.09,1.24,0.843,2.317,2.083,2.408
		c3.029,0.219,3.124,0.582,3.521,2.111c0.318,1.221,0.755,2.891,2.26,4.591c1.998,2.26,4.493,2.814,6.497,3.261
		c2.101,0.467,3.234,0.775,4.032,2.141c0.512,0.875,1.523,1.278,2.463,1.056c0.212-0.05,0.419-0.134,0.616-0.248
		c1.073-0.628,1.435-2.005,0.808-3.079C113.545,153.235,110.709,152.604,108.431,152.097z"/>
	<path fill="#FFFFFF" fill-opacity="10%" d="M134.816,137.222c-1.66-0.364-3.095-0.681-4.236-1.845c-1.028-1.047-1.188-2.364-1.359-4.426
		c-0.173-2.063-0.369-4.401-2.055-6.456c-0.789-0.961-2.206-1.102-3.168-0.313c-0.961,0.788-1.102,2.207-0.313,3.167
		c0.798,0.974,0.915,2.366,1.05,3.979c0.186,2.203,0.416,4.943,2.632,7.203c2.081,2.12,4.522,2.657,6.485,3.088
		c2.684,0.59,3.405,0.748,3.508,3.668c0.043,1.216,1.042,2.171,2.248,2.171c0.027,0,0.054,0,0.081-0.001
		c1.242-0.044,2.214-1.086,2.17-2.329C141.632,138.719,137.692,137.854,134.816,137.222z"/>
	<path fill="#FFFFFF" fill-opacity="10%" d="M64.16,20.013c4.813-1.523,5.702,0.238,7.416,4.729c1.236,3.239,3.032,7.947,8.462,7.947
		c0.693,0,1.447-0.077,2.265-0.243c1.219-0.248,2.005-1.437,1.757-2.654c-0.247-1.219-1.436-2.005-2.654-1.757
		c-3.215,0.653-4.007-0.661-5.624-4.898c-1.562-4.094-3.924-10.279-12.979-7.416c-1.185,0.375-1.841,1.641-1.467,2.825
		C61.71,19.729,62.974,20.386,64.16,20.013z"/>
	<path fill="#FFFFFF" fill-opacity="10%" d="M93.436,97.571c0.207,1.077,1.149,1.826,2.208,1.826c0.141,0,0.284-0.013,0.428-0.041
		c1.22-0.234,2.02-1.414,1.785-2.635c-0.111-0.579-0.208-1.117-0.298-1.618c-0.803-4.473-1.333-7.427-7.618-8.753
		c-1.349-0.283-2.88-0.166-4.359-0.053c-1.121,0.087-3.209,0.248-3.63-0.086c-0.002-0.003-0.135-0.259-0.032-1.055
		c0.158-1.233-0.713-2.361-1.946-2.52c-1.229-0.158-2.36,0.713-2.519,1.945c-0.258,2.005,0.153,3.59,1.221,4.713
		c1.815,1.91,4.704,1.688,7.252,1.49c1.163-0.09,2.366-0.182,3.085-0.031c2.208,0.467,2.806,0.964,3.08,1.345
		c0.472,0.656,0.708,1.975,1.036,3.799C93.221,96.417,93.32,96.974,93.436,97.571z"/>
	<path fill="#FFFFFF" fill-opacity="10%" d="M73.879,96.103c-0.244-1.219-1.429-2.01-2.648-1.766c-1.52,0.304-2.641,0.186-3.333-0.351
		c-1.682-1.303-1.905-5.384-2.104-8.985c-0.129-2.322-0.249-4.518-0.717-6.416c-0.297-1.207-1.517-1.944-2.724-1.646
		c-0.003,0-0.005,0.001-0.007,0.002c-1.203,0.3-1.937,1.518-1.641,2.722c0.368,1.489,0.477,3.479,0.593,5.587
		c0.264,4.785,0.536,9.733,3.841,12.295c1.771,1.372,4.116,1.778,6.974,1.207c0.035-0.007,0.07-0.016,0.105-0.024
		C73.377,98.438,74.115,97.286,73.879,96.103z"/>
	<path fill="#FFFFFF" fill-opacity="10%" d="M156.292,69.498c-1.028-1.047-1.187-2.364-1.359-4.427c-0.174-2.062-0.37-4.4-2.055-6.455
		c-0.788-0.961-2.206-1.102-3.168-0.313c-0.961,0.788-1.102,2.206-0.313,3.167c0.798,0.974,0.915,2.366,1.051,3.979
		c0.185,2.203,0.415,4.943,2.631,7.203c2.082,2.121,4.523,2.656,6.485,3.088c2.684,0.59,3.404,0.748,3.508,3.668
		c0.043,1.215,1.042,2.171,2.248,2.171c0.027,0,0.055,0,0.081-0.001c1.242-0.044,2.214-1.086,2.17-2.329
		c-0.227-6.407-4.166-7.273-7.042-7.905C158.868,70.978,157.435,70.663,156.292,69.498z"/>
	<path fill="#FFFFFF" fill-opacity="10%" d="M138.811,15.571c4.265-0.237,5.676,1.898,7.62,5.411c1.549,2.796,3.466,6.26,7.969,6.259
		c0.106,0,0.216-0.002,0.325-0.006c1.242-0.045,2.213-1.088,2.168-2.33c-0.044-1.242-1.1-2.213-2.33-2.168
		c-1.804,0.065-2.583-1.027-4.193-3.936c-1.901-3.434-4.507-8.139-11.812-7.726c-1.241,0.07-2.19,1.134-2.12,2.374
		C136.507,14.691,137.568,15.64,138.811,15.571z"/>
	<path fill="#FFFFFF" fill-opacity="10%" d="M151.709,104.432c0.925,0.448,1.927,0.672,2.999,0.672c1.263,0,2.624-0.311,4.073-0.933
		c1.142-0.49,1.671-1.813,1.18-2.957c-0.489-1.142-1.813-1.67-2.956-1.18c-1.424,0.611-2.547,0.728-3.334,0.346
		c-1.914-0.927-2.978-4.873-3.916-8.354c-0.605-2.247-1.177-4.369-2.027-6.13c-0.54-1.119-1.886-1.59-3.006-1.049
		c-1.119,0.541-1.588,1.887-1.048,3.006c0.667,1.382,1.186,3.307,1.735,5.344C146.655,97.824,147.945,102.609,151.709,104.432z"/>
	<path fill="#FFFFFF" fill-opacity="10%" d="M113.777,61.777c0.081,0.543,0.349,1.011,0.729,1.35c0.48,0.429,1.141,0.648,1.828,0.547
		c1.229-0.183,2.078-1.327,1.896-2.557c-0.494-3.342-2.288-6.079-3.871-8.493c-2.767-4.221-4.078-6.603-1.22-10.428
		c0.744-0.997,0.539-2.406-0.457-3.151c-0.995-0.743-2.406-0.539-3.149,0.456c-4.878,6.531-1.584,11.555,1.062,15.592
		C112.051,57.315,113.427,59.415,113.777,61.777z"/>
	<path fill="#FFFFFF" fill-opacity="10%" d="M133.99,87.845c-5.029-1.107-8.101-3.256-9.665-6.758c-0.237-0.53-0.235-1.095-0.211-1.971
		c0.048-1.791,0.122-4.496-3.487-6.74c-1.057-0.656-2.443-0.332-3.1,0.724s-0.334,2.443,0.723,3.1
		c1.416,0.88,1.404,1.324,1.364,2.794c-0.03,1.087-0.066,2.438,0.601,3.932c2.166,4.848,6.355,7.895,12.807,9.316
		c0.246,0.054,0.49,0.065,0.729,0.04c0.934-0.103,1.739-0.786,1.954-1.754C135.972,89.313,135.203,88.112,133.99,87.845z"/>
	<path fill="#FFFFFF" fill-opacity="10%" d="M86.065,13.049c0.571,1.33,1.163,2.705,2.162,3.604c1.228,1.105,2.774,1.447,4.017,1.721
		c0.632,0.139,1.497,0.33,1.729,0.549c1.935,1.826,1.641,3.001,0.323,6.795c-0.216,0.619-0.441,1.268-0.661,1.953
		c-0.378,1.182,0.271,2.445,1.448,2.828c0.002,0,0.006,0.002,0.009,0.002c1.184,0.379,2.451-0.272,2.83-1.456
		c0.208-0.649,0.422-1.263,0.626-1.85c1.305-3.755,2.654-7.64-1.484-11.546c-1.14-1.074-2.579-1.391-3.851-1.672
		c-0.802-0.176-1.629-0.359-1.974-0.668c-0.273-0.257-0.752-1.372-1.039-2.039c-0.552-1.283-1.122-2.609-2.048-3.598
		c-0.85-0.907-2.274-0.953-3.182-0.104s-0.953,2.273-0.104,3.182C85.255,11.163,85.704,12.209,86.065,13.049z"/>
	<path fill="#FFFFFF" fill-opacity="10%" d="M12.497,22.792c1.555,3.369,4.326,4.216,6.554,4.896c1.228,0.374,2.386,0.728,3.322,1.46
		c0.412,0.322,0.9,0.479,1.385,0.479c0.669,0,1.332-0.297,1.775-0.865c0.766-0.979,0.593-2.394-0.387-3.159
		c-1.596-1.247-3.289-1.765-4.781-2.22c-2.074-0.633-3.101-1.002-3.781-2.477c-0.351-0.761-0.221-1.711-0.07-2.811
		c0.252-1.839,0.597-4.357-1.644-6.474c-0.903-0.854-2.328-0.813-3.182,0.09s-0.812,2.328,0.09,3.183
		c0.492,0.465,0.501,0.941,0.275,2.591C11.85,18.978,11.595,20.837,12.497,22.792z"/>
	<path fill="#FFFFFF" fill-opacity="10%" d="M4.497,29.872c0.445,1.162,1.747,1.741,2.907,1.297c0.177-0.068,0.341-0.156,0.489-0.26
		c0.825-0.58,1.184-1.664,0.808-2.647c-1.296-3.38-3.993-4.462-6.158-5.331C1.562,22.536,0.708,22.189,0,21.692v5.06
		c0.295,0.124,0.586,0.243,0.865,0.355C2.862,27.909,3.932,28.397,4.497,29.872z"/>
	<path fill="#FFFFFF" fill-opacity="10%" d="M4.338,122.685c1.237,3.239,3.033,7.948,8.464,7.947c0.692,0,1.446-0.076,2.265-0.242
		c1.218-0.248,2.005-1.437,1.756-2.655c-0.247-1.218-1.435-2.004-2.654-1.757c-3.211,0.653-4.006-0.66-5.624-4.898
		c-1.269-3.323-3.064-8.027-8.544-8.145v4.498C2.258,117.562,3.077,119.382,4.338,122.685z"/>
	<path fill="#FFFFFF" fill-opacity="10%" d="M7.868,81.424c0.226,0.071,0.454,0.105,0.679,0.105c0.955,0,1.842-0.613,2.146-1.572
		c0.374-1.185-0.282-2.45-1.468-2.825c-4.46-1.411-4.479-2.856-4.517-5.735c-0.03-2.387-0.072-5.655-3.248-8.521
		C1.043,62.498,0.521,62.316,0,62.306v6.508c0.177,0.793,0.195,1.652,0.208,2.641C0.249,74.651,0.306,79.031,7.868,81.424z"/>
	<path fill="#FFFFFF" fill-opacity="10%" d="M2.879,96.465c0.471,0.656,0.708,1.975,1.035,3.799c0.093,0.519,0.192,1.074,0.308,1.673
		c0.208,1.078,1.15,1.826,2.208,1.826c0.141,0,0.283-0.014,0.428-0.041c1.221-0.234,2.02-1.414,1.785-2.635
		c-0.111-0.578-0.208-1.117-0.298-1.618c-0.802-4.473-1.333-7.427-7.618-8.753C0.491,90.666,0.245,90.643,0,90.615v4.552
		C2.032,95.619,2.613,96.097,2.879,96.465z"/>
	<path fill="#FFFFFF" fill-opacity="10%" d="M8.755,52.237c0.29,0.053,0.577,0.049,0.849-0.006c0.877-0.175,1.602-0.865,1.774-1.799
		c0.226-1.222-0.582-2.396-1.805-2.622c-3.799-0.703-6.014-2.843-6.585-6.361c-0.031-0.192,0.001-0.765,0.024-1.182
		C3.117,38.403,3.33,34.523,0,32.271v14.146C1.718,49.468,4.711,51.489,8.755,52.237z"/>
	<path fill="#FFFFFF" fill-opacity="10%" d="M21.978,67.028c1.537,2.354,0.021,6.627-1.085,9.746l-0.211,0.597c-0.412,1.173,0.204,2.458,1.377,2.87
		c0.247,0.087,0.498,0.128,0.746,0.128c0.929,0,1.798-0.579,2.123-1.505l0.208-0.586c1.42-4.006,3.366-9.492,0.611-13.711
		c-1.269-1.941-3.26-2.982-5.186-3.988c-1.789-0.936-3.478-1.816-4.464-3.332c-0.679-1.041-2.072-1.336-3.114-0.658
		c-1.042,0.68-1.337,2.074-0.658,3.115c1.63,2.502,4.032,3.757,6.151,4.864C20.02,65.374,21.353,66.071,21.978,67.028z"/>
	<path fill="#FFFFFF" fill-opacity="10%" d="M37.846,96.062c-0.231,1.992-0.472,4.054,0.741,5.885c1.066,1.609,2.73,2.341,4.067,2.928
		c1.354,0.595,2.136,0.968,2.444,1.724c0.41,1.001,1.458,1.549,2.48,1.364c0.153-0.027,0.306-0.071,0.454-0.132
		c1.151-0.471,1.703-1.784,1.233-2.936c-1.014-2.479-3.203-3.44-4.803-4.143c-0.919-0.404-1.789-0.785-2.124-1.291
		c-0.304-0.46-0.167-1.635-0.022-2.88c0.082-0.705,0.176-1.505,0.214-2.356c0.104-2.285-0.639-4.401-2.094-5.957
		c-1.64-1.754-4.04-2.715-6.939-2.777c-1.241-0.027-2.272,0.959-2.299,2.201c-0.027,1.243,0.959,2.272,2.201,2.3
		c1.66,0.035,2.956,0.503,3.749,1.351c0.793,0.85,0.919,1.925,0.886,2.678C38.003,94.714,37.924,95.399,37.846,96.062z"/>
	<path fill="#FFFFFF" fill-opacity="10%" d="M70.782,112.492c-6.487-1.526-9.765-2.512-13.341-8.212c-0.66-1.054-2.05-1.371-3.103-0.711
		s-1.371,2.05-0.71,3.103c4.399,7.014,9.026,8.533,16.123,10.202c0.174,0.041,0.346,0.061,0.518,0.061
		c1.021,0,1.945-0.699,2.188-1.736C72.743,113.988,71.992,112.776,70.782,112.492z"/>
	<path fill="#FFFFFF" fill-opacity="10%" d="M88.403,117.211c0.097-3.019,0.195-6.14-2.044-8.281c-1.709-1.635-4.338-2.256-8.277-1.955
		c-1.239,0.095-2.167,1.176-2.072,2.415c0.094,1.239,1.173,2.172,2.415,2.073c3.28-0.251,4.43,0.344,4.823,0.72
		c0.787,0.754,0.724,2.761,0.657,4.886c-0.103,3.233-0.23,7.258,2.376,10.696c0.442,0.585,1.115,0.892,1.795,0.892
		c0.474,0,0.951-0.148,1.358-0.456c0.99-0.752,1.186-2.163,0.435-3.153C88.225,122.877,88.316,119.996,88.403,117.211z"/>
	<path fill="#FFFFFF" fill-opacity="10%" d="M122.087,97.455c-1.291-0.757-3.011-1.319-4.831-1.915c-4.102-1.343-7.218-2.521-6.967-4.443
		c0.163-1.233-0.705-2.363-1.938-2.525s-2.362,0.707-2.525,1.939c-0.757,5.777,5.478,7.817,10.029,9.308
		c1.585,0.519,3.081,1.008,3.955,1.521c0.358,0.21,0.749,0.31,1.137,0.31c0.772,0,1.525-0.398,1.943-1.114
		C123.52,99.462,123.159,98.083,122.087,97.455z"/>
	<path fill="#FFFFFF" fill-opacity="10%" d="M113.844,29.003c1.186,0.338,2.41,0.687,3.062,1.144c1.206,0.849,2.122,1.741,3.006,2.604
		c1.342,1.308,2.606,2.404,4.122,2.975c2.012,0.756,4.467,0.581,8.132-1.268c1.11-0.559,1.556-1.912,0.997-3.021
		c-0.56-1.111-1.914-1.557-3.023-0.997c-4.053,2.043-4.695,1.417-7.085-0.912c-0.917-0.895-2.059-2.008-3.56-3.063
		c-1.274-0.896-2.873-1.351-4.418-1.791c-3.298-0.938-3.567-1.305-3.461-2.041c0.18-1.23-0.674-2.372-1.902-2.551
		c-1.231-0.179-2.373,0.674-2.553,1.904C106.447,26.898,111.078,28.216,113.844,29.003z"/>
	<path fill="#FFFFFF" fill-opacity="10%" d="M44.822,71.399c-0.612-1.434-1.731-2.662-2.813-3.85c-2.311-2.533-2.347-2.986-1.868-3.557
		c0.801-0.951,0.676-2.372-0.274-3.171c-0.952-0.8-2.372-0.677-3.172,0.274c-3.193,3.803,0.05,7.361,1.987,9.486
		c0.83,0.911,1.688,1.852,2,2.584c0.579,1.355,0.888,2.598,1.186,3.796c0.451,1.819,0.949,3.417,1.938,4.699
		c1.312,1.702,3.491,2.847,7.58,3.204c1.238,0.109,2.329-0.807,2.438-2.045s-0.808-2.33-2.045-2.438
		c-4.521-0.397-4.738-1.267-5.544-4.505C45.927,74.634,45.542,73.087,44.822,71.399z"/>
	<path fill="#FFFFFF" fill-opacity="10%" d="M94.54,61.343c-1.049-0.668-2.439-0.36-3.108,0.688s-0.361,2.439,0.687,3.107
		c2.152,1.373,2.85,4.301,3.587,7.4c0.975,4.095,2.188,9.191,7.771,10.242c0.141,0.027,0.28,0.039,0.419,0.039
		c1.062,0,2.006-0.753,2.209-1.834c0.23-1.222-0.573-2.398-1.795-2.629c-2.455-0.463-3.173-2.445-4.224-6.86
		C99.214,67.84,98.228,63.696,94.54,61.343z"/>
	<path fill="#FFFFFF" fill-opacity="10%" d="M58.089,137.889c-0.523-2.324-1.117-4.959-2.915-6.568c-1.43-1.28-3.506-2.144-5.337-2.905
		c-0.314-0.132-0.619-0.258-0.908-0.383c-2.151-0.925-3.706-1.593-3.55-7.087c0.035-1.243-0.943-2.278-2.186-2.314
		c-1.244-0.046-2.279,0.943-2.314,2.187c-0.202,7.12,2.25,9.621,6.271,11.351c0.305,0.131,0.626,0.265,0.956,0.402
		c1.428,0.594,3.203,1.333,4.065,2.104c0.725,0.649,1.168,2.62,1.525,4.204c0.246,1.095,0.479,2.13,0.832,3.057
		c0.341,0.899,1.196,1.453,2.104,1.453c0.266,0,0.535-0.048,0.798-0.147c1.163-0.441,1.747-1.741,1.306-2.903
		C58.498,139.709,58.3,138.825,58.089,137.889z"/>
	<path fill="#FFFFFF" fill-opacity="10%" d="M83.898,140.521c-1.417-0.727-2.117-2.577-2.928-4.719c-0.961-2.54-2.052-5.419-4.75-7.258
		c-1.807-1.23-3.766-1.937-5.658-2.619c-2.14-0.772-4.161-1.501-5.899-2.938c-0.958-0.791-2.377-0.656-3.168,0.302
		c-0.793,0.958-0.657,2.377,0.301,3.169c2.342,1.936,4.943,2.874,7.239,3.702c1.704,0.614,3.315,1.195,4.649,2.105
		c1.527,1.04,2.279,3.027,3.076,5.132c0.996,2.63,2.124,5.611,5.084,7.129c0.329,0.169,0.68,0.248,1.025,0.248
		c0.817,0,1.605-0.446,2.005-1.225C85.441,142.444,85.005,141.088,83.898,140.521z"/>
	<path fill="#FFFFFF" fill-opacity="10%" d="M96.417,122.144l0.529,0.473c1.953,1.746,2.763,2.486,3.202,3.303c0.479,0.886,0.734,2.263,1.244,5.004
		l0.009,0.049c0.088,0.477,0.162,0.937,0.232,1.374c0.489,3.05,1.084,6.756,6.288,6.984c0.722,0.033,1.533-0.002,2.445-0.115
		c1.233-0.152,2.109-1.277,1.957-2.511c-0.153-1.233-1.277-2.111-2.511-1.957c-2.292,0.284-2.853-0.111-2.971-0.24
		c-0.367-0.4-0.569-1.658-0.765-2.875c-0.076-0.473-0.155-0.969-0.252-1.482l-0.008-0.049c-1.199-6.456-1.42-6.862-5.873-10.841
		l-0.525-0.47c-0.926-0.829-2.349-0.75-3.178,0.176C95.412,119.892,95.491,121.314,96.417,122.144z"/>
	<path fill="#FFFFFF" fill-opacity="10%" d="M31.187,119.593c0.959-0.145,1.751-0.904,1.892-1.915c0.172-1.231-0.688-2.368-1.919-2.54
		c-1.157-0.161-1.862-4.26-2.163-6.01c-0.215-1.252-0.4-2.333-0.695-3.191c-1.102-3.218-3.15-9.208-10.727-8.848
		c-1.24,0.059-2.2,1.113-2.142,2.354c0.06,1.242,1.113,2.201,2.355,2.142c3.257-0.154,4.659,1.148,6.254,5.81
		c0.178,0.518,0.343,1.479,0.518,2.496c0.622,3.62,1.563,9.091,5.979,9.705C30.759,119.627,30.977,119.624,31.187,119.593z"/>
	<path fill="#FFFFFF" fill-opacity="10%" d="M43.17,148.412c-2.301-0.576-4.402-1.196-4.831-2.456c-0.221-0.646-0.184-2.271-0.16-3.347
		c0.015-0.592,0.026-1.151,0.01-1.628c-0.111-3.084-0.947-7.353-6.898-8.806c-1.207-0.296-2.426,0.444-2.721,1.652
		c-0.294,1.208,0.445,2.426,1.653,2.72c2.584,0.632,3.361,1.662,3.467,4.596c0.013,0.345,0.001,0.84-0.011,1.363
		c-0.036,1.641-0.078,3.501,0.399,4.903c1.257,3.683,5.314,4.697,8,5.369c0.184,0.046,0.367,0.067,0.548,0.067
		c1.009,0,1.926-0.684,2.182-1.705C45.109,149.935,44.376,148.713,43.17,148.412z"/>
	<path fill="#FFFFFF" fill-opacity="10%" d="M82.055,156.256c-2.11-0.006-3.074-0.124-3.559-0.437c-0.563-0.361-1.216-1.444-2.204-3.082l-0.201-0.333
		c-1.499-2.48-4.245-4.517-7.534-5.587c-1.183-0.384-2.452,0.263-2.837,1.445c-0.384,1.182,0.262,2.451,1.444,2.836
		c2.276,0.74,4.126,2.064,5.074,3.635l0.199,0.33c2.715,4.499,3.67,5.677,9.604,5.694c0.002,0,0.004,0,0.007,0
		c1.239,0,2.246-1.003,2.25-2.244C84.302,157.271,83.297,156.26,82.055,156.256z"/>
	<path fill="#FFFFFF" fill-opacity="10%" d="M130.84,43.423c-0.878-0.881-2.304-0.883-3.184-0.004c-0.88,0.877-0.882,2.303-0.004,3.183
		c0.391,0.392,0.676,0.829,1.006,1.335c0.597,0.916,1.34,2.055,2.83,3.005c2.264,1.442,6.304,2.6,9.001,2.6
		c0.099,0,0.195-0.001,0.289-0.005c1.242-0.041,2.217-1.08,2.176-2.323s-1.087-2.216-2.323-2.175
		c-1.768,0.057-5.161-0.897-6.723-1.893c-0.67-0.428-0.992-0.921-1.48-1.668C132.021,44.853,131.559,44.144,130.84,43.423z"/>
	<path fill="#FFFFFF" fill-opacity="10%" d="M169.373,149.048c-1.616-0.92-3.493-1.198-5.309-1.47c-3.825-0.569-5.08-0.972-5.293-3.577
		c-0.102-1.239-1.186-2.16-2.426-2.061c-1.239,0.101-2.162,1.187-2.061,2.426c0.521,6.385,5.693,7.155,9.117,7.665
		c1.471,0.219,2.859,0.426,3.744,0.929c0.352,0.2,0.733,0.295,1.111,0.295c0.782,0,1.543-0.408,1.958-1.138
		C170.83,151.037,170.453,149.662,169.373,149.048z"/>
	<path fill="#FFFFFF" fill-opacity="10%" d="M138.016,119.941c0.027,0.002,0.054,0.002,0.081,0.002c1.206,0,2.205-0.957,2.247-2.173
		c0.078-2.257-0.127-7.895-3.711-11.482c-1.869-1.871-4.349-2.807-7.209-2.713c-1.241,0.042-2.215,1.083-2.173,2.325
		c0.042,1.243,1.065,2.217,2.326,2.174c1.61-0.056,2.879,0.402,3.871,1.396c1.909,1.91,2.49,5.459,2.396,8.144
		C135.802,118.856,136.774,119.898,138.016,119.941z"/>
	<path fill="#FFFFFF" fill-opacity="10%" d="M116.105,7.599c1.225,1.018,2.666,1.531,3.938,1.982c2.239,0.797,2.875,1.176,3.084,2.32
		c0.197,1.086,1.146,1.848,2.212,1.848c0.134,0,0.269-0.012,0.405-0.037c1.223-0.222,2.034-1.395,1.812-2.617
		c-0.704-3.869-3.768-4.959-6.004-5.754c-1.007-0.359-1.959-0.697-2.568-1.203c-1.491-1.24-1.61-2.017-1.618-4.138h-4.502
		C112.875,2.604,113.081,5.084,116.105,7.599z"/>
	<path fill="#FFFFFF" fill-opacity="10%" d="M145.054,76.409c1.157-0.453,1.729-1.76,1.275-2.916c-1.843-4.704-6.516-5.145-10.27-5.498
		c-4.168-0.393-6.08-0.801-6.9-3.047c-0.426-1.168-1.718-1.77-2.886-1.344s-1.769,1.719-1.343,2.887
		c1.879,5.153,6.774,5.615,10.706,5.985c3.941,0.372,5.747,0.735,6.501,2.658c0.348,0.888,1.196,1.431,2.096,1.431
		C144.507,76.565,144.784,76.515,145.054,76.409z"/>
	<path fill="#FFFFFF" fill-opacity="10%" d="M160.48,4.243c0.043,1.216,1.041,2.172,2.247,2.172c0.027,0,0.054,0,0.082-0.002
		c1.241-0.043,2.213-1.086,2.169-2.328c-0.062-1.737-0.402-3.057-0.914-4.085h-9.354c0.789,0.25,1.556,0.422,2.26,0.576
		C159.655,1.166,160.377,1.325,160.48,4.243z"/>
	<path fill="#FFFFFF" fill-opacity="10%" d="M17.229,5.304c0.357,0.21,0.749,0.31,1.136,0.31c0.772,0,1.525-0.397,1.944-1.113
		c0.628-1.073,0.269-2.451-0.804-3.079C18.573,0.874,17.413,0.43,16.157,0H5.347c2.079,1.861,5.283,2.919,7.927,3.784
		C14.858,4.302,16.355,4.792,17.229,5.304z"/>
	<path fill="#FFFFFF" fill-opacity="10%" d="M97.78,4.975c1.243,0,2.251-1.008,2.251-2.251c0-0.965-0.053-1.866-0.146-2.724h-4.527
		c0.114,0.836,0.173,1.734,0.173,2.724C95.53,3.967,96.538,4.975,97.78,4.975z"/>
	<path fill="#FFFFFF" fill-opacity="10%" d="M68.043,7.714c0.162,0.035,0.324,0.053,0.483,0.053c1.035,0,1.967-0.719,2.196-1.771
		c0.266-1.214-0.503-2.414-1.718-2.68C67.611,3.012,67.153,2.263,66.836,0h-4.543C62.645,2.961,63.505,6.721,68.043,7.714z"/>
	<path fill="#FFFFFF" fill-opacity="10%" d="M45.748,5.532c0.855,0.248,1.663,0.481,2.017,0.851c0.421,0.438,0.472,0.89,0.516,2.171
		c0.034,0.962,0.075,2.158,0.515,3.457c0.316,0.939,1.193,1.531,2.132,1.531c0.238,0,0.482-0.038,0.721-0.119
		c1.177-0.397,1.81-1.675,1.412-2.853c-0.228-0.675-0.252-1.368-0.28-2.173c-0.054-1.521-0.119-3.415-1.766-5.131
		c-1.191-1.242-2.758-1.695-4.017-2.059c-0.929-0.269-1.808-0.521-2.124-0.967C44.817,0.163,44.771,0.081,44.725,0h-4.769
		c0.215,0.94,0.582,1.918,1.253,2.857C42.437,4.576,44.272,5.106,45.748,5.532z"/>
	<path fill="#FFFFFF" fill-opacity="10%" d="M170.258,20.44c-0.637-1.012-0.718-1.893-0.812-2.914c-0.263-2.822-0.936-5.269-6.568-6.617
		c-1.208-0.289-2.423,0.455-2.714,1.664c-0.289,1.209,0.456,2.424,1.666,2.714c2.953,0.708,2.988,1.081,3.133,2.654
		c0.116,1.255,0.275,2.974,1.485,4.896c1.372,2.18,3.301,3.189,5.021,3.915v-5.059C170.998,21.363,170.589,20.967,170.258,20.44z"/>
	<path fill="#FFFFFF" fill-opacity="10%" d="M167.032,113.664c-1.186,0.375-1.843,1.64-1.467,2.824c0.375,1.186,1.638,1.843,2.824,1.468
		c1.274-0.403,2.268-0.57,3.08-0.523v-4.498C170.201,112.907,168.735,113.125,167.032,113.664z"/>
	<path fill="#FFFFFF" fill-opacity="10%" d="M169.749,63.038c-0.833,0.923-0.76,2.346,0.163,3.179c0.929,0.838,1.353,1.679,1.558,2.61v-6.521
		C170.839,62.292,170.205,62.532,169.749,63.038z"/>
	<path fill="#FFFFFF" fill-opacity="10%" d="M167.834,90.663c-1.12,0.087-3.209,0.248-3.63-0.087c-0.002-0.002-0.135-0.258-0.032-1.054
		c0.158-1.234-0.713-2.361-1.946-2.52c-1.23-0.158-2.36,0.713-2.519,1.945c-0.257,2.005,0.153,3.59,1.221,4.713
		c1.815,1.91,4.704,1.688,7.252,1.49c1.165-0.089,2.368-0.182,3.085-0.031c0.075,0.016,0.134,0.032,0.205,0.048v-4.553
		C170.309,90.485,169.058,90.568,167.834,90.663z"/>
	<path fill="#FFFFFF" fill-opacity="10%" d="M165.688,32.642c-0.29,1.209,0.456,2.424,1.664,2.714c2.598,0.621,2.791,1.833,2.633,4.659
		c-0.044,0.76-0.084,1.479,0.026,2.156c0.257,1.582,0.753,3.001,1.458,4.252V32.274c-0.802-0.543-1.804-0.994-3.069-1.297
		C167.191,30.687,165.977,31.434,165.688,32.642z"/>
	<path fill="#FFFFFF" fill-opacity="10%" d="M157.938,167.648c-1.661-0.365-3.095-0.681-4.238-1.845c-1.027-1.048-1.186-2.365-1.359-4.428
		c-0.173-2.062-0.369-4.399-2.054-6.455c-0.788-0.961-2.207-1.102-3.168-0.313c-0.962,0.788-1.102,2.207-0.313,3.168
		c0.798,0.973,0.914,2.365,1.05,3.978c0.186,2.203,0.415,4.944,2.633,7.203c1.335,1.361,2.817,2.066,4.227,2.514h9.352
		C162.689,168.704,160.034,168.109,157.938,167.648z"/>
	<path fill="#FFFFFF" fill-opacity="10%" d="M7.708,166.53c0.162-1.232-0.706-2.363-1.938-2.524c-1.231-0.161-2.363,0.706-2.524,1.939
		c-0.318,2.422,0.602,4.182,2.103,5.524h10.813c-0.484-0.166-0.98-0.33-1.487-0.496C10.573,169.632,7.456,168.452,7.708,166.53z"/>
	<path fill="#FFFFFF" fill-opacity="10%" d="M90.228,158.921c-0.901,0.855-0.937,2.281-0.08,3.182c2.988,3.141,4.691,5.58,5.21,9.367h4.527
		c-0.573-5.26-2.869-8.68-6.476-12.47C92.552,158.099,91.128,158.063,90.228,158.921z"/>
	<path fill="#FFFFFF" fill-opacity="10%" d="M135.574,169.114c-1.234-1.277-1.628-3.688-1.975-5.816l-0.11-0.672c-0.355-2.113-1.352-4.113-2.23-5.878
		c-0.749-1.504-1.457-2.925-1.612-4.062c-0.169-1.231-1.31-2.093-2.536-1.924c-1.231,0.168-2.093,1.304-1.924,2.535
		c0.256,1.871,1.165,3.694,2.043,5.459c0.774,1.556,1.576,3.164,1.82,4.617l0.106,0.649c0.386,2.359,0.862,5.229,2.534,7.447h4.364
		C136.351,170.681,136.197,169.76,135.574,169.114z"/>
	<path fill="#FFFFFF" fill-opacity="10%" d="M58.449,160.415c-1.247-0.084-2.315,0.85-2.401,2.09c-0.087,1.24,0.85,2.314,2.09,2.401
		c3.374,0.234,3.662,1.769,4.043,5.524c0.033,0.329,0.069,0.68,0.112,1.039h4.543c-0.062-0.439-0.119-0.93-0.176-1.492
		C66.294,166.371,65.742,160.921,58.449,160.415z"/>
	<path fill="#FFFFFF" fill-opacity="10%" d="M37.153,161.278c-1.256-0.078-2.31,0.867-2.387,2.107s0.866,2.31,2.106,2.386
		c1.536,0.096,2.282,0.412,2.469,0.677c0.233,0.332,0.265,1.216,0.295,2.069c0.03,0.854,0.074,1.879,0.319,2.952h4.77
		c-0.504-0.866-0.547-1.912-0.59-3.11C44.047,165.867,43.899,161.698,37.153,161.278z"/>
	<path fill="#FFFFFF" fill-opacity="10%" d="M23.539,155.398c-0.553-0.268-1.03-0.498-1.445-0.848c-1.281-1.078-1.281-1.078-1.461-2.545
		c-0.054-0.433-0.12-0.972-0.225-1.617l-0.028-0.173c-0.444-2.757-0.996-6.188-4.423-8.186c-1.499-0.874-3.12-0.953-4.551-1.023
		c-0.932-0.045-1.987-0.098-2.333-0.416c-0.915-0.842-2.339-0.783-3.181,0.131c-0.843,0.914-0.784,2.339,0.131,3.181
		c1.545,1.424,3.551,1.521,5.163,1.601c1.005,0.05,1.953,0.096,2.503,0.417c1.512,0.881,1.838,2.478,2.247,5.012l0.028,0.176
		c0.09,0.562,0.148,1.032,0.199,1.448c0.287,2.338,0.623,3.413,3.032,5.439c0.846,0.711,1.696,1.124,2.38,1.455
		c1.148,0.556,1.242,0.601,1.33,1.445c0.121,1.157,1.098,2.018,2.236,2.018c0.078,0,0.156-0.004,0.236-0.012
		c1.235-0.129,2.134-1.236,2.005-2.473C27.036,157.092,24.932,156.073,23.539,155.398z"/>
	<path fill="#FFFFFF" fill-opacity="10%" d="M31.572,17.312c0.478,0.387,0.89,0.719,1.215,1.154c1.002,1.341,1.002,1.341,0.844,2.811
		c-0.046,0.434-0.104,0.973-0.149,1.625l-0.012,0.176c-0.193,2.785-0.437,6.252,2.446,8.977c1.261,1.191,2.821,1.637,4.198,2.031
		c0.897,0.256,1.913,0.547,2.178,0.936c0.699,1.027,2.1,1.295,3.127,0.596c1.029-0.699,1.296-2.1,0.596-3.127
		c-1.181-1.738-3.111-2.289-4.664-2.732c-0.967-0.277-1.88-0.537-2.342-0.976c-1.272-1.202-1.227-2.831-1.049-5.392l0.013-0.178
		c0.04-0.566,0.09-1.039,0.135-1.455c0.252-2.342,0.169-3.466-1.716-5.986c-0.662-0.885-1.396-1.48-1.986-1.959
		c-0.992-0.802-1.073-0.867-0.967-1.709c0.145-1.154-0.61-2.215-1.72-2.474c-0.075-0.018-0.152-0.032-0.232-0.042
		c-1.232-0.156-2.359,0.719-2.515,1.951C28.552,14.867,30.369,16.338,31.572,17.312z"/>
	<path fill="#FFFFFF" fill-opacity="10%" d="M148.329,35.546c-1.652-0.465-3.917-1.1-4.067-1.894c-0.23-1.222-1.405-2.023-2.63-1.792
		c-1.222,0.23-2.024,1.409-1.792,2.631c0.67,3.534,4.331,4.562,7.271,5.389c1.586,0.445,3.558,0.998,4.12,1.754
		c0.749,1.01,1.333,2.443,1.95,3.963c1.305,3.21,2.785,6.85,6.619,8.312c0.264,0.101,0.535,0.148,0.802,0.148
		c0.906,0,1.761-0.552,2.103-1.449c0.444-1.161-0.139-2.462-1.3-2.905c-2.005-0.765-3-3.211-4.054-5.802
		c-0.696-1.712-1.416-3.481-2.507-4.95C153.366,36.96,150.806,36.241,148.329,35.546z"/>
	<path fill="#FFFFFF" fill-opacity="10%" d="M162.251,135.574c1.068,0,2.017-0.763,2.213-1.853c0.221-1.223-0.593-2.394-1.815-2.614
		c-5.562-1.004-12.086-4.605-12.928-8.676c-0.252-1.218-1.442-2.001-2.66-1.749c-1.217,0.253-2,1.443-1.748,2.661
		c1.451,7.02,10.685,11.139,16.537,12.193C161.984,135.562,162.118,135.574,162.251,135.574z"/>
	<path fill="#FFFFFF" fill-opacity="10%" d="M117.36,169.848c-0.013-1.235-1.018-2.228-2.25-2.228c-0.008,0-0.016,0-0.023,0
		c-1.243,0.014-2.24,1.031-2.228,2.275c0.004,0.346,0.003,0.676,0.003,0.992c0,0.194,0,0.389,0.001,0.582h4.502
		c0-0.188-0.001-0.368-0.001-0.578C117.364,170.56,117.365,170.212,117.36,169.848z"/>
	<path fill="#FFFFFF" fill-opacity="10%" d="M133.955,1.465c0.562,0,1.127-0.21,1.563-0.632c0.25-0.241,0.424-0.528,0.538-0.833h-4.371
		c0.202,0.268,0.412,0.53,0.65,0.777C132.777,1.235,133.365,1.465,133.955,1.465z"/>
</g>
</svg>
