<?xml version="1.0" encoding="utf-8"?>
<!-- Generator: Adobe Illustrator 16.0.0, SVG Export Plug-In . SVG Version: 6.00 Build 0)  -->
<!DOCTYPE svg PUBLIC "-//W3C//DTD SVG 1.1//EN" "http://www.w3.org/Graphics/SVG/1.1/DTD/svg11.dtd">
<svg version="1.1" id="Layer_1" xmlns="http://www.w3.org/2000/svg" xmlns:xlink="http://www.w3.org/1999/xlink" x="0px" y="0px"
	 width="220.643px" height="220.643px" viewBox="0 0 220.643 220.643" enable-background="new 0 0 220.643 220.643"
	 xml:space="preserve">
<g>
	<path fill="#FFFFFF" d="M102.37,114.756c-1.367,2.011-3.818,3.116-5.428,4.976c-2.088,2.414-2.79,5.858-4.748,8.366
		c-2.144,2.745-6.146,3.834-6.559,7.914c5.854-1.785,7.545-8.89,11.532-13.341c2.206-2.462,5.406-4.1,7.237-6.783
		c0.916-1.345,1.121-3.196,2.034-4.523c1.05-1.523,3.194-2.34,4.522-3.618c1.223-1.175,2.021-2.817,3.166-4.069
		c4.387-4.791,8.771-7.058,11.758-13.567c2.738-5.965,4.412-12.449,8.594-16.732c2.812-2.881,6.423-4.512,9.496-6.784
		c9.203-6.805,14.51-17.993,21.029-27.586c0,0,2.885-4.258,8.15-8.47c7.128-5.702,11.849-17.641,11.849-17.641
		c-4.477,6.317-10.268,7.898-15.008,12.638c-4.739,4.739-10.87,13.473-10.87,13.473c-7.294,5.298-13.341,11.754-18.993,18.994
		c-1.894,2.423-3.312,5.398-5.428,7.235c-1.21,1.049-3.153,1.733-4.749,2.939c-1.678,1.269-2.976,3.222-4.521,4.07
		c-3.363,1.845-3.877,3.021-6.519,6.605c0.015,1.191-2.427,5.302-2.501,6.583c-4.682,8.01-5.107,11.7-8.619,18.92
		c-0.814,1.678-2.093,3.15-2.938,4.976C104.025,111.125,103.452,113.168,102.37,114.756z"/>
	<path fill="#FFFFFF" d="M59.824,160.207c0.97-1.189,3.072-1.179,4.523-2.035c4.043-2.383,6.854-7.851,9.271-11.984
		c1.285-2.197,2.625-4.452,3.845-6.784c1.23-2.354,2.132-5.106,3.617-7.008c2.474-3.168,6.862-4.375,9.724-7.237
		c2.041-2.041,3.188-5.141,4.748-7.914c4.801-8.534,7.967-17.738,9.725-28.491c-1.172,5.288-5.179,8.727-7.463,13.115
		c-1.216,2.334-1.617,5.189-3.166,7.462c-1.602,2.352-4.689,3.445-6.557,5.653c-0.93,1.099-1.179,2.69-2.036,3.844
		c-2.312,3.113-6.763,5.047-9.723,7.688c-3.122,2.786-3.535,7.014-6.177,10.396c-2.709,3.468-6.421,6.249-7.844,10.634
		c-1.473,4.54-4.43,7.655-6.104,11.531c-0.894,2.067-1.832,5.159-0.678,7.688C59.397,166.508,58.182,162.223,59.824,160.207z"/>
	<path fill="#FFFFFF" d="M215.457,177.281c-8.424,9.127-19.131,32.556-19.131,32.556c-4.63,2.429-9.004,6.539-12.879,10.806h8.033
		c1.604-1.489,3.316-3.002,5.108-4.487C205.804,208.52,215.457,177.281,215.457,177.281z"/>
	<path fill="#FFFFFF" d="M197.203,188.516c-0.79,1.052-26.153,24.744-34.052,30.535c-0.665,0.487-1.277,1.022-1.85,1.592h14.07
		c2.704-1.884,5.208-3.08,6.736-4.487C196.501,202.909,197.993,187.462,197.203,188.516z"/>
	<path fill="#FFFFFF" d="M217.445,155.086c-2.376,3.904-2.069,9.94-5.427,12.662c0,0-2.595,3.081-4.213,6.318
		c-1.62,3.239-4.467,6.953-6.642,8.152c5.333,0.393,8.913-4.144,11.761-7.461c2.529-2.946,5.109-5.758,7.718-8.562v-14.519
		C219.341,152.754,218.189,153.863,217.445,155.086z"/>
	<path fill="#FFFFFF" d="M204.783,210.711c0,0-0.825,3.869-2.669,6.767c0,0,4.107-4.055,5.607-6.767
		c3.937-2.982,4.903-9.438,8.141-13.115c1.307-1.484,2.98-2.631,4.78-3.681v-3.135c-2.889,1.37-5.653,2.513-7.945,4.78
		C209.032,199.188,206.167,204.833,204.783,210.711z"/>
	<path fill="#FFFFFF" d="M82.958,84.987c7.201-6.139,13.825-14.062,15.828-24.646C93.71,68.605,82.582,75.297,82.958,84.987z"/>
	<path fill="#FFFFFF" d="M27.132,179.073c4.093-9.517,16.204-14.957,15.828-24.647C34.736,158.675,29.135,168.488,27.132,179.073z"
		/>
	<path fill="#FFFFFF" d="M183.629,120.094c2.342-4.928,3.969-10.735,7.585-13.765c6.021-5.046,15.222-4.585,17.418-13.485
		c-0.033-0.342-0.085-0.664-0.562-0.562c-9.532,6.891-21.231,9.61-27.53,19.944c-2.087,3.424-2.396,8.019-5.057,11.237
		c-2.314,2.802-7.015,4.989-9.55,8.709c-2.416,3.542-3.166,8.711-6.181,10.956c-3.195,2.377-7.376,3.148-10.395,5.617
		c-4.077,3.334-7.256,8.179-9.833,12.643c-2.719,4.71-5.08,10.287-5.337,16.574c1.494-3.317,3.504-5.99,5.337-8.99
		c1.881-3.076,2.901-6.752,5.057-9.55c4.795-6.223,13.92-7.179,18.541-13.766c0.992-6.798,6.791-8.698,11.518-13.203
		C178.181,129.081,181.612,124.338,183.629,120.094z"/>
	<path fill="#FFFFFF" d="M82.942,202.135c1.573-4.004,5.145-6.47,7.422-9.807c1.042-1.527,1.431-3.595,2.651-5.036
		c1.724-2.039,4.566-3.266,6.361-5.302c4.948-5.613,7.798-13.702,13.254-19.085c4.211-4.157,9.424-6.131,15.903-7.952
		c-6.47,6.96-15.007,11.854-18.819,21.471c5.89-3.124,12.274-7.165,16.963-10.603c-1.678,3.411-3.8,5.751-6.625,8.217
		c-2.87,2.503-6.499,3.463-9.278,5.566c-2.696,2.041-4.651,6.861-6.892,9.543c-5.955,7.126-19.476,9.462-18.819,22.265
		c0,0,0.678,2.905-0.024,5.89c0,0,3.511-2.106,4.213-6.494c2.106-6.847,7.618-10.645,12.775-15.83
		c7.393-7.432,17.299-12.754,24.121-20.939c6.479-7.775,7.265-21.203,14.579-28.362c3.644-3.567,7.74-6.538,11.133-10.338
		c3.411-3.82,7.579-7.309,10.338-11.134c1.312-1.82,1.997-4.12,3.444-5.829c1.19-1.406,3.431-2.214,4.508-3.713
		c1.786-2.485,2.372-6.137,5.036-8.747c3.459-3.39,9.702-7.241,14.578-10.337c2.283-1.451,5.104-3.043,7.952-4.507
		c2.79-1.435,6.459-3.075,7.422-4.771c0.785-1.385,0.864-3.276,1.325-4.771c2.77-9.003,8.772-16.667,14.179-24.105v-5.25
		c-1.953,1.902-4.472,3.232-4.9,6.824c-2.661,3.309-7.407,4.536-10.604,7.156c-3.202,2.628-5.223,7.112-7.422,10.339
		c-4.332,6.353-11.405,13.757-17.495,18.023c-1.899,1.332-3.648,2.226-5.83,3.183c-1.866,0.816-5.332,3.873-7.659,5.354
		c-11.342,7.217-9.674,23.967-19.113,34.141c-3.026,3.263-7.906,5.799-12.192,8.747c-8.535,5.868-17.355,10.244-28.362,13.519
		c-5.762,1.714-8.425,5.501-12.159,9.047c-3.121,2.964-5.051,6.57-6.319,10.567c-1.366,4.299-3.346,6.452-5.114,11.135
		c-3.037,8.046-8.794,14.104-12.457,21.204c-1.211,2.011-2.3,5.362-3.705,8.172c-0.165,0.331-0.352,0.688-0.553,1.059h8.56
		c3.049-4.623,4.977-9.23,4.977-9.23C82.323,208.231,81.741,205.19,82.942,202.135z"/>
	<path fill="#FFFFFF" d="M192.946,57.673c-2.663,3.566-4.767,7.675-7.157,11.397c-4.646,7.234-9.896,14.867-16.169,20.94
		c-3.012,2.918-8.165,5.414-7.688,10.867c5.981-5.076,12.491-10.309,17.494-16.963c1.629-2.164,2.569-4.723,4.241-7.157
		c1.507-2.194,4.834-4.173,6.894-6.893c1.546-2.043,2.198-5.074,3.974-6.361c1.114-0.806,2.806-0.815,3.977-1.59
		c2.568-1.7,3.784-5.275,6.098-7.157c2.095-1.705,4.88-2.394,7.156-3.977c3.204-2.227,6.129-4.878,8.877-7.666v-5.397
		C212.054,44.972,199.546,48.832,192.946,57.673z"/>
	<path fill="#FFFFFF" d="M214.414,15.791c-0.476,0.764-0.508,1.967-0.796,2.916c-2.301,2.241-3.024,5.271-4.505,7.953
		c-0.798,1.441-2.365,2.34-3.184,3.71c-0.93,1.562-1.19,3.457-2.119,5.037c-5.855,9.956-15.433,14.945-25.447,21.471
		c11.899-12.134,21.636-26.431,32.339-39.762c-5.7,3.152-9.487,8.475-13.782,13.521c-5.467,6.418-11.334,11.786-15.641,19.614
		c-7.434,3.632-9.589,12.195-12.987,20.146c-4.261,9.968-12.046,17.479-18.556,25.977c-1.522,1.986-3.406,4.156-5.3,5.832
		c-3.093,2.732-5.095,5.367-6.316,10.127c-1.644,6.401-1.396,13.117-4.553,18.234c-2.7,4.377-8.633,8.011-13.519,10.604
		c-5.583,2.961-11.71,4.099-16.169,7.951c-2.485,2.148-4.787,5.325-6.097,8.218c6.84-5.164,18.345-5.081,26.772-9.544
		c5.955-3.153,12.814-7.312,16.434-12.722c1.129-1.689,1.848-4.795,3.182-6.627c1.677-2.304,3.136-5.565,3.486-7.866
		c0.511-3.339,1.562-6.611,2.578-11.084c1.352-5.956,4.986-10.929,9.574-14.449c2.074-1.59,4.755-2.602,6.097-4.771
		c1.05-1.701,1.438-4.389,2.386-5.832c1.609-2.452,4.762-3.709,6.625-5.831c3.07-3.495,5.028-8.551,7.423-12.724
		c2.401-4.184,4.669-8.683,7.952-12.192c6.211-6.641,15.12-10.628,22.266-16.436c4.036-3.279,7.022-8.305,7.681-11.333
		c0.165-0.758,0.298-1.607,0.404-2.502V8.607C217.257,11.851,214.414,15.791,214.414,15.791z"/>
	<path fill="#FFFFFF" d="M68.269,192.854c2.853-4.173,7.301-12.41,8.482-16.757c1.44-5.29,4.455-5.939,8.062-9.757
		c3.437-3.638,6.073-7.447,8.45-11.652c-7.302,1.472-12.18,5.984-16.699,10.338c-9.388,9.043-12.688,22.946-21.736,32.338
		c-4.411,4.581-7.904,8.227-11.739,13.27c0,0-1.038,1.688-5.271,10.01h4.637c2.04-3.977,4.006-7.388,5.481-9.23
		c3.663-5.261,8.61-10.649,12.724-14.578c0.192,7.306-3.846,12.352-8.621,15.904c0,0-3.26,3.263-6.02,7.904h8.997
		c3.276-4.455,4.818-8.51,6.89-11.236C65.767,203.964,64.289,198.674,68.269,192.854z"/>
	<path fill="#FFFFFF" d="M18.514,28.785c0,0,11.497,0.087,15.973-11.234C36.49,12.481,39.548,5.666,42.456,0h-4.637
		c-1.814,3.566-4.211,8.343-7.371,14.743C30.448,14.743,25.886,22.466,18.514,28.785z"/>
	<path fill="#FFFFFF" d="M43.878,20.797c0,0,5.002-13.428,9.478-18.693C53.959,1.395,54.508,0.692,55.017,0H46.02
		c-1.313,2.212-2.516,4.734-3.194,7.369C40.718,15.531,43.613,15.795,43.878,20.797z"/>
	<path fill="#FFFFFF" d="M144.896,189.218c2.106-2.81,4.915-12.991,6.319-14.744c1.404-1.757,9.83-11.938,13.691-15.447
		c3.862-3.512,9.478-14.746,7.373-12.989c-2.107,1.755-15.447,11.935-22.118,15.797s-10.181,16.149-12.638,23.521
		c-2.456,7.372-14.394,22.819-17.903,26.329c-2.702,2.702-4.739,7.08-5.535,8.958h5.48c2.077-3.072,7.044-11.463,9.533-14.575
		C131.907,202.558,142.789,192.024,144.896,189.218z"/>
	<path fill="#FFFFFF" d="M117.513,205.717c2.107-1.404,5.266-7.724,9.128-14.394c3.861-6.671,2.106-10.181,2.106-10.181
		s-3.511,5.266-7.373,8.075c-3.861,2.807-5.79,5.091-11.055,9.656c-5.268,4.562-8.725,11.234-11.533,16.499
		c-1.523,2.861-3.33,4.428-4.664,5.27h15.543c3.152-3.436,2.26-6.345,2.582-8.607C112.599,209.578,115.406,207.121,117.513,205.717z
		"/>
	<path fill="#FFFFFF" d="M4.33,129.887c1.587-0.7,4.177-6.637,5.442-7.725c8.326-7.162,2.352-20.101,11.537-26.018
		c0,0,3.273-1.896,4.262-2.763c0.823-0.72,2.328-3.319,2.934-5.558c0.514-1.903,1.357-3.904,1.785-4.679
		c2.492-4.519,4.863-9.261,7.09-12.526c1.904-2.793,5.973-4.745,7.09-7.562c1.923-4.848,3.032-10.897,9.69-10.872
		c2.519-1.63,4.198-4.025,6.145-6.381c1.717-2.077,4.522-4.192,5.673-6.618c0.492-1.042,0.385-2.474,0.945-3.544
		c0.754-1.438,3.202-3.206,4.962-4.728C83.767,20.647,96.11,10.013,108.753,0.9c0.337-0.304,0.636-0.603,0.907-0.9H94.118
		c-1.12,0.705-1.908,0.9-1.908,0.9c-1.967,2.154-4.066,3.682-6.145,5.909c-1.869,2.005-3.141,5.119-5.198,6.616
		c-1.106,0.805-2.7,0.847-3.783,1.654c-1.958,1.465-2.403,4.277-3.779,6.618c-4.07,6.919-11.681,11.233-18.436,16.544
		c-2.535,1.994-4.011,4.798-5.909,8.035c-4.997,8.519-12.406,15.995-17.725,23.87c-3.781,5.602-9.104,9.363-13.471,14.417
		c-4.544,5.256-8.184,10.42-11.818,15.835c3.859-2.287,8.312-6.027,13.236-8.035c0.437,0.789-0.878,1.842-1.893,2.599
		c-2.361,1.768-6.588,6.922-10.538,12.714C4.104,111.56,1.457,116.625,0,119.542v16.876C1.849,134.584,2.303,130.779,4.33,129.887z"
		/>
	<path fill="#FFFFFF" d="M42.054,86.654c-3.555,1.772-7.553,2.264-10.162,4.255c-3.188,2.433-4.687,8.104-6.144,12.054
		c-0.41,1.109-1.805,4.138-2.781,6.095c-0.978,1.955-3.129,6.667-3.129,6.667c-0.611,2.014-1.854,5.023-0.708,7.326
		c1.605-0.79,2.299-2.628,3.309-4.018c4.792-6.597,10.148-13.385,15.598-19.617c3.744-4.277,7.348-8.938,11.344-13.234
		c1.861-2,4.498-3.331,5.909-5.672C49.062,80.095,46.535,84.423,42.054,86.654z"/>
	<path fill="#FFFFFF" d="M203.43,137.955c-15.446,13.414-18.167,22.906-23.434,29.227c0,0,14.481-6.583,21.591-13.692
		c7.108-7.108,12.746-11.274,18.616-16.695c0.155-0.114,0.301-0.243,0.439-0.382v-16.881c-0.719,1.44-1.151,2.363-1.151,2.363
		S213.435,129.267,203.43,137.955z"/>
	<path fill="#FFFFFF" d="M168.943,182.723c0.525-7.373,5.793-16.852,8.952-20.538c3.16-3.686,5.792-14.745,12.638-20.01
		c6.847-5.267,11.058-6.319,16.324-14.218s7.899-13.691,8.952-18.958c1.054-5.266,1.58-10.005,2.633-12.638
		c0.416-1.039,1.162-2.651,2.2-4.383V71.506c-1.201,1.479-2.03,2.773-2.2,3.791c-0.525,3.16-3.16,5.268-3.686,11.585
		c-0.526,6.319-1.579,16.324-3.687,17.904c-2.106,1.58-3.98,9.261-7.666,12.421c-3.687,3.159-6.58,6.752-8.657,9.176
		c-2.167,2.529-11.06,8.945-12.113,12.632c-1.053,3.686-4.212,13.692-7.372,19.484s-5.266,8.952-12.639,17.377
		c-7.372,8.427-10.531,13.165-14.218,19.484c-3.686,6.32-8.951,13.165-12.111,15.797c-1.629,1.359-3.96,5.1-6.483,9.485h9.495
		c3.041-3.361,6.333-7.475,9.627-11.59C153.145,203.785,168.416,190.094,168.943,182.723z"/>
	<path fill="#FFFFFF" d="M19.636,143.779c3.218-2.568,7.113-5.696,10.148-8.448c3.194-2.898,5.383-5.388,8.62-8.284
		c2.005-1.795,3.33-9.928,5.422-12.252c4.064-4.519,7.662-4.104,11.764-8.777c1.356-1.547,3.584-2.998,5.199-4.75
		c1.216-1.316,1.602-5.992,3.047-6.748c2.519-1.318,4.429-8.449,6.319-10.269c3.517-3.383,5.817-4.14,8.162-9.141
		c1.937-4.132,5.25-4.555,8.25-8.212c0,0,5.178-4.587,7.987-9.854c2.808-5.265,8.805-16.149,10.722-20.185
		c1.916-4.039,4.725-11.937,8.763-17.027c0,0-4.915,1.404-6.32,3.686c-1.404,2.282-9.089,8.427-8.933,11.937
		c0.156,3.511-0.122,6.753-1.139,8.38c-1.11,2.843-4.501,3.836-6.784,5.879c-1.44,1.288-2.08,3.438-3.392,4.749
		c-1.932,1.934-4.859,2.692-6.783,4.748c-2.452,2.622-2.216,5.862-4.297,9.271c0.054-6.277,3.374-10.494,5.201-14.244
		c-9.979,8.937-14.98,21.124-22.838,31.882c-5.544,7.591-11.301,16.024-17.863,23.29c-2.054,2.273-5.386,4.489-6.784,6.783
		c-1.122,1.844-1.033,4.364-2.487,6.105c-2.414,2.896-4.173,6.962-7.278,9.348c-3.127,2.404-8.651,2.893-11.038,6.256
		c-2.439,3.439-4.802,6.607-7.687,9.271c-1.707,1.575-3.807,3.006-5.617,4.502v14.517c3.57-3.836,7.193-7.658,10.817-11.783
		C13.871,150.931,16.287,146.452,19.636,143.779z"/>
	<path fill="#FFFFFF" d="M26.646,167.295c2.68-4.234,4.823-8.914,7.688-13.115c1.832-2.688,6.541-5.309,7.461-9.044
		c0.318-1.292-0.086-2.894,0-4.296c0.406-6.582,3.949-10.518,8.593-14.472c4.348-3.703,7.87-8.132,10.854-12.211
		c6.749-9.228,17.864-15.162,19.671-26.004c-5.387,5.28-12.151,9.215-16.959,15.15c-2.337,2.884-4.194,6.435-6.558,9.496
		c-3.483,4.518-7.609,8.165-9.723,13.568c-1.189,0.062-1.342-0.239-2.262,0c-2.581,3.724-6.035,4.46-9.044,8.141
		c-3.796,4.641-2.988,13.458-5.88,19.897c-2.627,5.854-5.552,8.074-9.183,12.771c-2.06,2.868-3.705,4.641-3.705,4.641
		c-5.52,7.182-8.988,14.734-16.734,18.542c-0.289,0.143-0.579,0.281-0.867,0.418v3.135c2.521-1.47,5.289-2.742,7.65-4.456
		C15.372,183.854,21.538,175.361,26.646,167.295z"/>
	<path fill="#FFFFFF" d="M10.733,39.913c2.722-5.087,3.857-11.444,7.073-16.484C22.384,14.54,32.813,7.367,32.813,7.367
		c-13.428,1.579-19.164,8.424-19.164,8.424c-4.796,6.058-4.574,9.44-7.423,14.579C4.638,33.237,2.482,35.615,0,37.712v5.397
		c2.749-2.79,5.32-5.719,7.817-8.497C5.321,40.68,4.452,45.989,1.19,50.78C0.842,51.293,0.436,51.744,0,52.169v5.247
		c0.581-0.799,1.158-1.598,1.722-2.394C5.173,50.137,7.926,45.16,10.733,39.913z"/>
	<path fill="#FFFFFF" d="M4.33,5.26C2.903,6.032,1.405,7.256,0,8.603v14.776c0.314-2.667,0.415-5.726,0.513-7.982
		C0.644,12.369,4.33,5.26,4.33,5.26z"/>
	<path fill="#FFFFFF" d="M10.609,209.578c3.862-5.266,4.914-20.713,4.914-20.713C12.046,192.61,4.7,198.598,0,204.186v14.158
		C3.569,215.65,8.114,212.979,10.609,209.578z"/>
	<path fill="#FFFFFF" d="M150.249,23.156c-3.949,6.845-6.057,10.005-7.109,11.058s-2.896,5.793-8.952,9.216
		c-6.056,3.422-4.213,6.582-8.952,12.374c-4.739,5.794-3.423,9.217-3.423,9.217c2.37-3.423,7.109-4.74,8.162-7.899
		c1.054-3.16,10.269-12.375,13.692-15.798c3.423-3.423,9.16-10.663,13.428-14.219c1.579-1.315,3.949-2.633,6.847-3.948
		c2.896-1.316,13.69-8.426,15.007-10.007c1.061-1.272,5.88-6.984,12.529-13.149h-8.033c-4.938,5.439-9.065,11.137-11.868,13.939
		c-5.003,5.003-7.899,3.16-7.899,3.16c0.527-0.79,1.316-5.792,5.792-11.585c1.88-2.431,3.94-4.152,5.898-5.515h-14.069
		C155.058,6.204,153.866,16.887,150.249,23.156z"/>
	<path fill="#FFFFFF" d="M70.996,5.433C72.592,3.837,74.049,1.917,75.313,0h-8.559C63.57,5.893,56.428,16.14,56.428,16.14
		C60.288,14.209,65.555,10.873,70.996,5.433z"/>
	<path fill="#FFFFFF" d="M35.05,206.685c2.401-3.686,4.732-4.74,7.219-7.288c2.402-2.466,5.855-3.851,8.717-6.812
		c8.532-8.822,10.39-25.296,21.524-32.15c4.487-2.761,9.394-3.364,14.169-5.448c8.883-3.878,10.454-14.615,19.39-18.975
		c4.561-2.225,5.283-8.27,8.32-11.491c1.903-2.019,5.692-3.747,7.257-7.094c4.354-9.317,13.929-12.436,20.067-20.199
		c3.659-4.63,7.886-9.806,11.988-14.985c3.797-4.796,8.892-10.804,10.897-15.802c1.247-3.107,1.164-6.697,2.724-9.264
		c1.425-2.344,4.632-3.829,6.539-5.995c1.923-2.179,3.365-5.178,5.45-7.355c1.516-1.584,3.388-2.646,4.631-4.087
		c1.933-2.235,3.25-4.809,4.904-7.084c4.836-6.646,12.08-11.589,17.981-17.709c1.902-1.72,6.876-8.109,9.334-12.674
		c0.421-0.783,1.033-1.537,1.771-2.272h-6.447c-1.001,1.916-1.667,3.162-1.667,3.162c-6.769,5.498-11.709,11.784-11.709,11.784
		c-1.09,1.271-1.414,3.309-3.813,3.271c-0.953-0.222-0.267-1.995,0.271-3.271c1.034-2.808,7.066-12.56,7.066-12.56
		c-3.173,2.114-9.434,10.377-9.434,10.377c-5.353,5.971-7.999,16.321-13.162,23.162c-2.474,3.276-5.239,6.286-7.627,9.535
		c-2.529,3.437-4.156,7.333-6.54,10.898c-3.29,4.922-8.891,8.662-11.988,14.439c-3.065,5.72-5.024,13.22-9.536,16.892
		c-1.827,1.489-4.569,2.266-6.266,3.814c-1.874,1.712-2.58,5.056-4.904,6.539c-2.741,1.751-5.781,2.306-8.173,3.815
		c-2.418,1.522-4.837,3.248-6.812,5.175c-3.244,3.169-4.45,6.683-7.082,10.897c-2.003,3.21-5.381,6.153-7.901,9.265
		c-2.711,3.347-4.045,7.602-6.539,10.899c-2.964,3.914-8.746,7.064-12.806,10.081c-8.503,6.312-17.059,12.787-22.341,21.795
		c-1.406,2.398-2.351,4.981-3.814,7.355c-1.356,2.198-4.633,2.832-6.036,5.135c-2.098,3.439-1.98,6.467-5.003,9.214
		c-1.684,1.218-3.687,2.896-6.057,3.95c-2.368,1.053-4.213,4.213-8.952,9.478c-4.738,5.268-12.901,12.64-12.901,12.64
		s-1.507,1.021-3.51,2.899h13.14c1.028-1.027,2.114-2.393,3.981-4.627C33.959,212.545,33.438,209.157,35.05,206.685z"/>
	<path fill="#FFFFFF" d="M220.643,204.191c-1.466,1.744-2.677,3.449-3.428,5.036c-1.907,4.023-4.204,8.499-5.728,11.415h6.45
		c0.778-0.778,1.701-1.538,2.705-2.294V204.191z"/>
	<path fill="#FFFFFF" d="M24.604,202.208c3.686-5.529,9.216-10.796,14.218-16.324c5.004-5.529,9.582-8.072,12.163-15.094
		c2.8-7.616,3.055-16.261,5.995-22.888c1.316-2.967,4.323-5.224,5.175-8.173c0.522-1.804,0.395-5.513,1.363-7.629
		c2.058-4.491,8.261-8.806,12.261-12.533c2.14-1.993,4.352-3.947,6.538-5.721c2.449-1.986,5-5.895,7.058-7.742
		c4.683-4.202,6.253-10.712,10.27-16.587c3.865-5.654,9.006-10.277,12.112-15.799c3.782-6.725,5.988-11.689,8.977-17.631
		c2.479-4.931,5.08-9.221,8.447-12.533c1.149-1.132,2.94-1.676,4.085-2.998c1.066-1.229,2.161-4.04,2.998-5.993
		c2.757-6.43,5.351-13.23,7.629-19.617c1.116-4.922,8.188-13.054,8.188-13.054c-10.575,7.191-14.909,11.421-14.909,11.421
		c-2.446,2.623-5.796,6.901-7.446,10.353c-1.464,3.061-1.926,6.583-3.27,9.808c-1.219,2.926-3.182,5.491-4.632,8.446
		c-2.566,5.23-3.865,10.967-7.628,15.257c-1.684,1.92-4.334,4.002-6.54,5.993c-2.425,2.193-5.877,3.89-6.811,5.723
		c-0.908,1.782-0.785,4.005-1.362,5.449c-1.529,3.828-4.007,7.421-7.083,10.08c-2.282,1.973-1.944,7.894-4.077,10.625
		c-3.77,4.826-9.286,6.673-13.088,11.443c-3.728,4.677-7.684,9.108-11.171,13.896c-3.609,4.955-7.415,9.908-9.807,15.258
		c-2.596,5.796-3.417,12.264-5.995,19.071c-2.224,5.871-4.208,14.024-8.861,18.2c-4.606,4.134-9.161,7.544-12.269,12.688
		c-7.01,11.598-9.986,20.067-17.558,30.412c-0.979,1.625-2.618,3.263-4.206,4.627h2.637c3.003-1.9,5.017-3.762,5.017-3.762
		S20.919,207.738,24.604,202.208z"/>
	<path fill="#FFFFFF" d="M19.155,4.905C24.069,2.515,25.646,1.736,27.385,0h-14.89C9.419,3.914,5.593,9.985,4.562,16.96
		C4.562,16.96,11.329,8.712,19.155,4.905z"/>
	<path fill="#FFFFFF" d="M7.998,0H5.365C3.113,1.936,0.966,3.318,0.966,3.318C3.548,2.557,5.993,1.27,7.998,0z"/>
	<path fill="#FFFFFF" d="M105.919,9.645c-3.275,2.938-5.98,7.205-9.69,10.398c-3.747,3.225-8.259,5.879-11.108,8.98
		c-2.81,3.061-4.725,7.714-7.799,10.162c-1.098,0.876-2.637,1.241-3.781,2.128c-1.877,1.453-4.399,4.638-6.146,6.618
		c-2.035,2.309-3.303,5.247-5.199,7.562c-3.315,4.048-8.285,6.211-12.289,9.454c-3.61,2.924-6.229,6.09-9.689,9.216
		c-0.154,0.139-1.139,0.42-0.709,0.946c3.703-1.653,6.999-3.581,11.107-4.255c1.151-0.188,2.605,0.107,3.781-0.236
		c1.596-0.468,3.286-3.229,4.726-4.018c1.873-1.023,4.455-1.021,6.855-1.892c2.806-1.017,6.107-9.243,8.653-11.791
		c3.36-3.361,6.72-5.211,9.217-8.162c2.366-2.798,4.803-4.282,6.708-7.933c1.758-3.368,4.23-6.557,6.382-9.454
		c7.339-9.882,18.484-13.767,21.979-26.47c0.159-0.195,0.382-0.507,0.646-0.9h-5.479c-0.237,0.561-0.365,0.9-0.365,0.9
		C113.215,4.896,108.676,7.171,105.919,9.645z"/>
	<path fill="#FFFFFF" d="M136.82,2.623c0.804-0.803,1.634-1.685,2.482-2.623h-9.495c-2.37,4.118-4.911,8.805-7.205,12.63
		C122.603,12.63,133.135,6.311,136.82,2.623z"/>
	<path fill="#FFFFFF" d="M6.746,84.776c4.74-2.634,2.852-9.478,9.434-16.849c5.489-6.149,9.524-21.593,13.738-28.965
		c4.212-7.372,8.95-13.692,12.637-17.379c0,0-9.479,2.635-15.271,11.06c0,0-12.637,22.116-17.377,27.909
		C6.698,64.476,2.525,68.396,0,71.501V91.97C1.595,89.31,3.879,86.369,6.746,84.776z"/>
	<path fill="#FFFFFF" d="M199.266,159.804c0,0-1.403,1.054-6.67,5.617c-5.266,4.563-6.319,2.457-9.829,5.617
		c-3.511,3.159-6.318,4.915-6.67,6.67c-0.353,1.755,0.701,0-2.809,6.67c-3.512,6.669-4.916,7.372-7.021,12.287
		c-2.105,4.914-9.598,12.617-8.425,15.097c0.12,0.256,5.027-2.578,9.942-6.791s6.327-5.161,8.968-11.103
		c3.944-8.874,5.312-9.84,9.175-13c3.861-3.16,7.722-8.075,9.829-10.884C197.862,167.177,197.862,163.666,199.266,159.804z"/>
	<path fill="#FFFFFF" d="M32.203,60.729c2.81-4.915,7.372-12.99,10.532-17.904c3.16-4.915,5.617-7.021,9.83-9.479
		s8.776-1.755,11.937-9.127c3.159-7.372,9.127-12.287,10.181-15.097c0,0-1.405-1.053-7.021,5.267
		c-5.616,6.317-4.914,5.616-9.829,9.127s-7.372,4.915-9.479,7.021c-2.105,2.106,1.053-3.861,2.457-7.373
		c1.405-3.511,2.811-11.232,5.969-16.5c0,0-4.563,3.862-6.318,8.426c0,0-0.353,2.457-3.862,7.724
		c-3.51,5.266-6.32,8.075-7.724,10.883c-1.403,2.81-2.809,5.267-7.373,15.446c-4.562,10.181-4.212,15.798-7.723,20.012
		C23.778,69.154,29.396,65.643,32.203,60.729z"/>
	<path fill="#FFFFFF" d="M120.76,19.741c-2.896,4.478-5.004,6.846-7.109,11.06c-2.106,4.213-6.319,14.218-8.689,20.01
		c-2.368,5.793-3.422,6.845-4.212,7.372c0,0,3.687-1.315,6.057-3.16c2.368-1.842,4.476-8.688,8.425-15.534
		c3.949-6.845,2.37-11.848,7.372-16.588c5.003-4.739,11.322-10.531,13.955-14.219c0,0-4.739,2.897-6.319,3.424
		C130.238,12.105,123.655,15.266,120.76,19.741z"/>
	<path fill="#FFFFFF" d="M129.4,126.996c3.393-3.182,1.483-6.362,2.12-9.756c0.637-3.395,2.758-7.212,1.909-6.575
		c-0.849,0.636-4.241,5.938-5.09,8.06c-0.848,2.12-4.03,5.515-10.181,11.454c-6.151,5.938-8.909,11.878-8.909,11.878
		c2.12-1.697,10.181-8.271,13.151-9.969C125.37,130.391,126.005,130.179,129.4,126.996z"/>
	<path fill="#FFFFFF" d="M82.824,172.915c0,0-4.053,10.288-5.923,12.158c-1.871,1.87-4.053,9.353-8.417,16.835
		c-4.364,7.48-2.183,11.533-2.183,11.533c0.935-7.793,11.535-20.574,14.652-27.745C84.07,178.527,82.824,172.915,82.824,172.915z"/>
	<path fill="#FFFFFF" d="M208.585,162.666c0.674-3.904,4.31-12.119,4.31-12.119c-6.059,3.637-9.561,16.024-11.716,19.39
		c-2.154,3.367-4.309,7.002-5.789,9.831c-1.482,2.828-5.117,5.521-5.117,5.521c8.348-2.29,9.561-7.271,9.694-8.752
		c0.135-1.481,1.617-3.367,4.578-6.33C207.508,167.243,207.911,166.571,208.585,162.666z"/>
	<path fill="#FFFFFF" d="M187.075,123.764c12.737-7.548,15.097-17.926,15.097-17.926
		C189.434,113.856,187.075,123.764,187.075,123.764z"/>
	<path fill="#FFFFFF" d="M134.208,83.895c-2.626,4.126-3.376,6.002-3.376,6.002c3.376-2.251,9.754-7.878,11.255-11.255
		c1.5-3.376,6.752-9.753,6.752-9.753s-4.502,4.126-8.629,6.002C136.085,76.766,136.835,79.767,134.208,83.895z"/>
	<path fill="#FFFFFF" d="M220.643,182.984v-2.812c-1.838,2.478-3.499,4.723-3.961,5.369
		C216.682,185.541,218.482,184.512,220.643,182.984z"/>
	<path fill="#FFFFFF" d="M6.288,177.214c2.776-4.058,8.969-11.958,11.744-16.016c2.775-4.057,6.192-10.89,7.046-12.811
		c0,0-4.056,0.854-6.404,5.125c-2.349,4.27-6.909,6.956-7.688,7.686c-3.416,3.203-3.844,9.396-5.125,11.105
		c-0.726,0.968-3.447,4.619-5.86,7.87v2.811C2.243,181.401,4.875,179.279,6.288,177.214z"/>
</g>
</svg>
